<svg width="58" height="64" viewBox="0 0 58 64" fill="none" xmlns="http://www.w3.org/2000/svg">
<g clip-path="url(#clip0_173_15683)">
<path d="M1.11738 37.5991C1.44543 32.2093 1.77347 26.8182 2.10153 21.4259C2.13668 20.8433 2.19058 20.2588 2.22807 19.6744C2.29603 18.657 2.23979 17.7623 1.41263 16.7883C-0.785337 14.198 1.27671 10.3684 5.03762 9.67938C5.31576 9.61057 5.60872 9.58424 5.89998 9.60182C7.04582 9.76236 7.64799 9.28975 8.31113 8.64037C12.1095 4.91906 16.7468 2.03472 22.7573 0.737762C30.2955 -0.885688 37.2455 0.225491 43.5957 3.68705C46.3342 5.19358 48.7401 7.02924 50.7215 9.12378C50.8506 9.28105 51.0329 9.40832 51.2488 9.4919C51.4647 9.57548 51.7061 9.61223 51.9471 9.59821C55.2136 9.59821 57.1982 10.9331 57.7513 13.435C58.1379 15.1883 57.7981 16.7504 55.9446 17.9571C55.6728 18.1375 55.6822 18.3306 55.6963 18.5596C55.9087 22.1312 56.1204 25.7028 56.3313 29.2744C56.6547 34.5308 56.9819 39.7866 57.3131 45.0417C57.5357 48.6133 57.7443 52.1849 57.9833 55.7565C58.2317 59.503 55.64 62.575 51.3027 63.6356C50.2712 63.8824 49.196 64.0041 48.1159 63.9964C35.3499 63.9964 22.5831 63.9964 9.81553 63.9964C4.12847 63.9964 -0.150322 60.7062 0.00198891 56.3355C0.158986 51.9089 0.510485 47.4859 0.775271 43.0593C0.884623 41.2411 0.996301 39.4216 1.11034 37.6009L1.11738 37.5991ZM3.53328 38.1276C3.42861 39.8112 3.32392 41.4948 3.21926 43.1784C2.95213 47.6032 2.62412 52.028 2.44603 56.4564C2.31716 59.6221 5.50629 62.0933 9.62571 62.0987C22.5386 62.1192 35.453 62.1192 48.3689 62.0987C49.3646 62.0999 50.3492 61.9389 51.2581 61.6262C54.2247 60.6106 55.6963 58.4929 55.5112 55.6735C55.0987 49.4737 54.7238 43.2739 54.3395 37.0724C53.9771 31.1654 53.6241 25.2566 53.2804 19.3461C53.2569 18.9348 53.0718 18.8717 52.6031 18.9186C48.2025 19.3533 43.7996 19.7718 39.399 20.2029C34.8718 20.6485 30.3376 20.975 25.7706 20.708C18.926 20.3075 12.147 19.4597 5.33287 18.8573C4.67911 18.7977 4.71191 18.9619 4.69082 19.31C4.31434 25.585 3.9285 31.8575 3.53328 38.1276ZM29.2668 11.4814C21.6981 11.4814 14.1302 11.4814 6.56308 11.4814C4.58772 11.4814 3.54732 12.1686 3.22161 13.6694C3.16771 13.9129 3.14195 14.1619 3.11852 14.4072C2.97323 15.9116 4.05579 16.8568 6.02412 17.0408C10.9801 17.5026 15.929 17.9914 20.8803 18.4713C24.7725 18.8483 28.674 19.0611 32.5965 18.832C39.392 18.437 46.103 17.6018 52.8586 17.0083C53.3422 16.9709 53.8052 16.8382 54.2029 16.623C54.6005 16.4079 54.9196 16.1176 55.1292 15.78C55.4423 15.3359 55.5999 14.8367 55.5866 14.3316C55.5732 13.8264 55.3892 13.3326 55.0528 12.8988C54.7164 12.4649 54.2392 12.1059 53.6679 11.8571C53.0967 11.6083 52.4511 11.4782 51.7947 11.4796L29.2668 11.4814ZM47.9917 9.56391C37.2127 -1.06067 20.1281 -0.167774 10.5958 9.56391H47.9917Z" fill="white"/>
</g>
<defs>
<clipPath id="clip0_173_15683">
<rect width="58" height="64" fill="white"/>
</clipPath>
</defs>
</svg>
