<svg width="58" height="64" viewBox="0 0 58 64" fill="none" xmlns="http://www.w3.org/2000/svg">
<g clip-path="url(#clip0_173_15681)">
<path d="M55.8056 27.4271C55.7656 32.868 54.2177 37.6593 51.6847 42.0954C51.4288 42.5442 51.4411 42.7755 51.7972 43.1155C52.2936 43.5869 52.7574 44.0984 53.1848 44.6458C54.5584 46.4158 54.5938 48.4561 54.0928 50.5832C53.9602 51.2016 53.7528 51.7975 53.4761 52.3548C53.2972 52.6949 53.3759 52.9057 53.6149 53.1642C54.7265 54.3663 55.8473 55.5598 56.9141 56.8112C57.3469 57.3039 57.6648 57.905 57.8407 58.5629C58.0166 59.2208 58.0451 59.916 57.9238 60.5888C57.8025 61.2616 57.5351 61.8919 57.1444 62.4256C56.7537 62.9593 56.2515 63.3805 55.6808 63.6531C54.2393 64.3485 52.5866 63.9932 51.3794 62.6976C50.3342 61.572 49.3027 60.4311 48.2852 59.2749C47.9769 58.9349 47.7626 58.8329 47.3202 59.0658C45.8756 59.8224 44.357 60.2118 42.7382 59.8922C41.7484 59.696 40.8399 59.1605 40.142 58.3619C39.4375 57.5798 38.7221 56.8095 38.0361 56.0087C37.8094 55.7435 37.6429 55.7401 37.3546 55.8914C33.9012 57.7022 30.2937 58.9638 26.4811 59.4127C20.265 60.1438 14.3603 59.1882 9.12782 55.1348C5.93343 52.6592 3.55923 49.4372 2.54017 45.1899C1.76933 41.9713 2.27037 38.8529 3.34339 35.8078C4.46266 32.6299 6.10762 29.7769 7.82815 26.9663C8.27832 26.2301 8.73775 25.499 9.21567 24.7849C9.39451 24.5214 9.36982 24.3734 9.15861 24.1575C8.60206 23.5743 8.06245 22.9673 7.5244 22.3637C5.75608 20.3676 5.75608 17.603 7.5244 15.6068C8.10099 14.9539 8.10101 14.9539 7.50746 14.2993C5.39997 11.975 3.28168 9.66435 1.18652 7.32817C-0.871634 5.026 -0.170173 1.31601 2.52625 0.273738C4.0849 -0.329859 5.47708 0.0680229 6.64877 1.35513C8.80714 3.73551 10.9794 6.11587 13.1239 8.51155C13.4476 8.87371 13.611 8.91964 13.961 8.52857C15.7586 6.50865 17.7612 6.33181 19.8996 7.96407C20.0537 8.08819 20.157 8.14603 20.339 7.9896C24.1161 4.75908 28.4714 3.99226 33.0795 4.50404C39.2062 5.18415 44.6422 7.73457 49.349 12.1196C53.6935 16.1509 55.7563 21.3554 55.8056 27.4271ZM38.9904 55.0872C39.069 51.6441 40.4057 49.0376 42.4191 46.8136C44.4326 44.5897 46.8206 43.1071 49.8423 43.022C49.6465 42.7959 49.5078 42.6276 49.3629 42.4678L30.1611 21.2891C26.5638 17.3218 22.9629 13.35 19.3585 9.37361C18.1066 7.99128 16.3521 7.95387 15.0972 9.32769C12.8885 11.7466 10.687 14.1741 8.49263 16.61C7.18681 18.0569 7.19604 19.9306 8.51265 21.3996C9.43766 22.4385 10.3858 23.4672 11.3232 24.5009C20.1447 34.2288 28.9642 43.9566 37.7817 53.6845C38.1594 54.101 38.5186 54.538 38.9904 55.0872ZM10.3257 25.5636C9.89713 26.2437 9.43765 26.9391 8.99827 27.655C7.20836 30.5658 5.50481 33.5243 4.38862 36.8517C2.72976 41.7825 3.40963 46.2781 6.41593 50.3621C8.87031 53.6963 12.0339 55.8336 15.7247 57.0476C20.4639 58.605 25.2338 58.4928 30.01 57.2482C32.3133 56.6458 34.5506 55.7695 36.6825 54.6349L10.3257 25.5636ZM50.3527 41.6567C50.5068 41.4374 50.5731 41.3422 50.6332 41.2368C52.6636 37.6526 54.0696 33.815 54.4073 29.5712C54.8837 23.5998 53.436 18.3153 49.4184 14.1667C43.9978 8.57107 37.4965 5.78602 30.0656 5.83533C26.9945 5.85403 24.1146 6.76197 21.5677 8.7666C21.1052 9.12705 21.1483 9.31751 21.5183 9.72557C31.0162 20.1789 40.5058 30.6412 49.9873 41.1126C50.1201 41.2846 50.2422 41.4664 50.3527 41.6567ZM40.3193 54.5788C40.3116 56.8215 41.3861 58.2072 43.2947 58.5132C44.3739 58.6832 45.3822 58.3432 46.3859 57.9606C46.8484 57.7906 46.7882 57.6206 46.4907 57.2958C45.7029 56.4559 44.9336 55.5955 44.1628 54.7352C43.6479 54.1622 43.6463 53.8647 44.1628 53.2934C45.5318 51.7745 46.9044 50.2601 48.2806 48.7503C48.8218 48.1552 49.0885 48.1569 49.6327 48.7503C50.4035 49.6004 51.1913 50.4505 51.9529 51.3176C52.2273 51.6305 52.3954 51.69 52.5203 51.2071C52.6637 50.6597 52.8733 50.1241 52.9612 49.5664C53.2156 47.9766 53.1323 46.4566 51.8913 45.3293C50.8306 44.3652 49.5864 44.3482 48.333 44.6662C45.6119 45.3582 43.5908 47.1809 41.9921 49.6242C41.0054 51.1306 40.3979 52.8054 40.3193 54.5771V54.5788ZM1.3145 3.94975C1.29754 5.13994 1.67219 5.83023 2.22258 6.43553C4.38711 8.81591 6.54548 11.2008 8.69768 13.5903C8.95823 13.8793 9.10464 13.9065 9.37443 13.5903C10.3226 12.5089 11.2831 11.4394 12.2713 10.4006C12.595 10.0605 12.5566 9.8905 12.259 9.56065C10.1268 7.23808 8.01314 4.89171 5.89177 2.55553C5.73133 2.37224 5.55928 2.20178 5.37687 2.04545C4.54898 1.36534 3.65168 1.25142 2.72204 1.7445C1.7924 2.23758 1.35763 3.12341 1.316 3.94805L1.3145 3.94975ZM56.6828 59.9755C56.6828 58.9264 56.3837 58.2565 55.8781 57.6971C53.6688 55.2487 51.4488 52.8122 49.2488 50.3604C49.0083 50.0935 48.8773 50.1275 48.6568 50.3757C47.7025 51.452 46.742 52.5232 45.7584 53.5654C45.45 53.897 45.3976 54.0908 45.7414 54.4513C46.7451 55.5003 47.7055 56.5987 48.6876 57.6733C49.9826 59.0913 51.2515 60.5416 52.5912 61.9087C53.362 62.6993 54.3348 62.7588 55.283 62.2487C55.6842 62.049 56.0274 61.7309 56.2748 61.3293C56.5221 60.9278 56.6638 60.4586 56.6844 59.9738L56.6828 59.9755Z" fill="white"/>
</g>
<defs>
<clipPath id="clip0_173_15681">
<rect width="58" height="64" fill="white"/>
</clipPath>
</defs>
</svg>
