<svg width="58" height="64" viewBox="0 0 58 64" fill="none" xmlns="http://www.w3.org/2000/svg">
<g clip-path="url(#clip0_173_15685)">
<path d="M28.9881 63.9904H1.14147C-0.02411 63.9904 -0.0143152 63.9904 -0.00125549 62.6488C0.0824681 57.3794 1.21178 52.2056 3.29692 47.5382C5.38206 42.8709 8.36557 38.8388 12.0105 35.7621C12.5704 35.2887 12.763 34.823 12.7597 34.02C12.7314 25.204 12.7314 16.3881 12.7597 7.57213C12.7597 6.90901 12.6096 6.74995 12.0627 6.7672C10.3421 6.82278 10.4106 6.9205 10.4302 4.82383C10.4384 3.5321 10.4433 2.2423 10.4302 0.952488C10.4302 0.291292 10.6473 -0.00576782 11.2268 -0.00576782C23.0742 0.00445357 34.9211 0.00445357 46.7674 -0.00576782C47.3502 -0.00576782 47.5657 0.291292 47.5608 0.952488C47.5455 2.57769 47.5455 4.20288 47.5608 5.82808C47.5608 6.48736 47.3469 6.82275 46.7674 6.78634C46.7467 6.78442 46.7259 6.78442 46.7053 6.78634C46.227 6.84 45.5887 6.53148 45.3112 6.91861C45.0777 7.24634 45.2361 7.96883 45.2361 8.51504C45.2361 17.1189 45.2312 25.7215 45.2214 34.3228C45.2037 34.5752 45.2461 34.8283 45.3438 35.054C45.4416 35.2798 45.5908 35.4692 45.7748 35.6011C52.2476 41.113 56.2096 48.4801 57.5972 57.7426C57.8698 59.5594 57.9432 61.3935 58.0069 63.2295C58.0281 63.8543 57.6919 64.0076 57.2054 64.0057C54.1723 63.9942 51.1408 64.0057 48.1076 64.0057H28.9881V63.9904ZM44.0754 34.1407C44.0754 34.041 44.0885 33.9491 44.0885 33.8667C44.0885 29.1118 44.0885 24.3569 44.0983 19.6021C44.0983 19.144 43.9759 19.0443 43.6086 19.0482C41.7361 19.0693 39.8636 19.0616 37.9912 19.0482C37.2843 19.0482 37.1309 18.8566 37.1293 18.0382C37.1293 16.0067 37.1293 13.9752 37.1293 11.9437C37.1293 11.0219 37.2354 10.8992 38.0075 10.8992C39.8604 10.8992 41.7132 10.8819 43.5579 10.9107C43.9971 10.9107 44.1097 10.7612 44.0918 10.2687C44.0591 9.36216 44.0542 8.44991 44.0918 7.54532C44.1162 6.97036 43.997 6.77871 43.4681 6.77871C33.7995 6.80043 24.131 6.80043 14.4624 6.77871C14.0282 6.77871 13.8633 6.86494 13.8682 7.43414C13.8921 10.6283 13.8921 13.8302 13.8682 17.0397C13.8682 17.6146 14.0314 17.699 14.4608 17.6913C16.2712 17.6664 18.0832 17.6779 19.8953 17.6817C20.7115 17.6817 20.8405 17.8331 20.8421 18.8125C20.8421 20.821 20.8421 22.8289 20.8421 24.8361C20.8421 25.6966 20.7213 25.8307 19.9851 25.8327C18.1731 25.8327 16.361 25.8556 14.5506 25.8192C14.038 25.8077 13.8552 25.917 13.8666 26.5858C13.909 28.8856 13.8829 31.1721 13.8829 33.4661C13.8829 34.2481 13.8829 34.25 14.4624 33.8494C18.0339 31.3967 22.0196 29.8922 26.1395 29.4415C32.1313 28.7332 38.1614 30.2501 43.38 33.7785C43.5873 33.9203 43.7685 34.135 44.0754 34.1407ZM42.3646 62.668C43.9318 62.668 45.4989 62.6508 47.0661 62.6795C47.484 62.6891 47.5852 62.5357 47.546 62.0758C47.4725 60.9564 47.3406 59.8434 47.151 58.743C44.2615 43.6792 29.7423 36.6897 18.7721 45.1626C13.6413 49.1278 10.9363 54.8736 10.4367 62.0624C10.4139 62.4074 10.3715 62.6853 10.8367 62.6814C14.0119 62.6565 17.187 62.6623 20.3638 62.6814C20.7115 62.6814 20.7817 62.5722 20.674 62.1985C20.4813 61.4935 20.3618 60.7637 20.3181 60.0251C20.1386 57.5931 21.0788 55.6306 22.2444 53.7812C23.9895 51.0099 26.1542 48.735 28.4478 46.6249C28.8379 46.2665 29.1546 46.2914 29.5334 46.6422C30.4606 47.5008 31.3666 48.3862 32.2433 49.3253C33.4709 50.6304 34.1272 52.2384 34.0961 54.1932C34.088 54.6321 34.2006 54.6781 34.5353 54.6531C35.7825 54.5573 36.6265 55.2032 37.1326 56.5352C37.8231 58.352 37.8002 60.1996 37.3268 62.0605C37.2027 62.5454 37.2288 62.7082 37.7153 62.6967C39.2694 62.645 40.817 62.668 42.3646 62.668ZM5.1851 62.668C6.40619 62.668 7.63384 62.6565 8.85003 62.668C9.17652 62.668 9.29893 62.5779 9.31689 62.1601C9.55197 56.7153 11.2432 51.9662 14.3188 47.8955C14.5963 47.5275 14.5963 47.3417 14.2975 46.9967C12.6117 45.0546 10.9417 43.0947 9.28748 41.1168C8.9969 40.7719 8.85324 40.724 8.5496 41.1168C6.72965 43.4385 5.19896 46.0511 4.00316 48.8768C2.28417 52.9494 1.37822 57.2711 1.13988 61.8017C1.1007 62.5492 1.28351 62.7159 1.88916 62.6814C2.97801 62.6239 4.08645 62.668 5.1851 62.668ZM52.7585 62.668C53.9192 62.668 55.0799 62.6278 56.2389 62.6853C56.7825 62.7121 56.8919 62.4936 56.8331 61.9187C56.7352 60.9949 56.701 60.0635 56.5998 59.1397C55.8374 52.2403 53.4017 46.2397 49.4169 41.0977C49.1475 40.7508 49.0022 40.7603 48.7247 41.0977C47.0694 43.0755 45.3994 45.0355 43.7146 46.9775C43.4061 47.334 43.3702 47.5199 43.6804 47.9358C46.7396 51.9873 48.4227 56.7191 48.6627 62.1352C48.6823 62.5875 48.7981 62.691 49.1605 62.6834C50.3555 62.6527 51.557 62.668 52.7585 62.668ZM28.4086 35.4401C28.4086 34.0985 28.3809 32.757 28.42 31.425C28.438 30.8213 28.3401 30.6239 27.7671 30.6584C21.1837 30.9989 14.9169 34.0714 10.0825 39.3287C9.82621 39.6066 9.70218 39.7772 10.0336 40.1567C11.7673 42.1441 13.4715 44.1641 15.1774 46.1841C15.3864 46.4294 15.5039 46.4697 15.7455 46.209C19.208 42.5485 23.2778 40.563 27.9238 40.2238C28.3335 40.1931 28.4135 40.0474 28.4135 39.6028C28.3939 38.2133 28.4086 36.8257 28.4086 35.4401ZM29.5676 35.4075C29.5676 36.8181 29.5824 38.2287 29.5595 39.6392C29.5595 40.0647 29.6379 40.1893 30.0215 40.2142C34.6675 40.5457 38.7405 42.5235 42.2046 46.1822C42.4723 46.4639 42.5931 46.4237 42.8217 46.1515C44.5118 44.1468 46.2107 42.153 47.9183 40.1701C48.2023 39.8405 48.217 39.668 47.9183 39.3421C42.8445 33.9414 36.9105 31.0072 30.0558 30.6527C29.6297 30.6297 29.566 30.8079 29.566 31.2487C29.5873 32.6363 29.5676 34.02 29.5676 35.4075ZM29.0061 62.668H35.4772C35.7139 62.668 35.9571 62.7351 36.0698 62.3499C36.6069 60.51 36.7946 58.6797 36.0176 56.861C35.9373 56.654 35.8203 56.4696 35.6744 56.32C35.5285 56.1705 35.3572 56.0592 35.1717 55.9937C34.9862 55.9282 34.7909 55.9099 34.599 55.9402C34.407 55.9704 34.2228 56.0485 34.0586 56.1691C33.8423 56.3476 33.6623 56.5799 33.5313 56.8495C33.4979 56.9242 33.4519 56.9902 33.3961 57.0435C33.3404 57.0968 33.276 57.1363 33.2069 57.1596C33.1378 57.1829 33.0653 57.1895 32.994 57.179C32.9226 57.1685 32.8539 57.1412 32.7918 57.0986C32.4767 56.907 32.4506 56.5946 32.5355 56.2419C32.5747 56.0829 32.6465 55.9353 32.6987 55.7782C33.2603 53.9 32.9958 52.1904 31.8466 50.73C31.0744 49.7488 30.1651 48.9304 29.2787 48.0891C29.1154 47.9281 28.9702 47.838 28.7531 48.045C26.3174 50.3774 23.9944 52.8363 22.3228 56.012C21.3106 57.94 21.2258 59.9523 21.8151 62.0624C21.9392 62.507 22.1073 62.691 22.5415 62.6834C24.6898 62.6508 26.8496 62.668 29.0061 62.668ZM28.993 5.45629C34.6087 5.45629 40.2255 5.46078 45.8434 5.46972C46.2923 5.46972 46.4458 5.35665 46.4213 4.8047C46.3715 3.89849 46.3715 2.98947 46.4213 2.08326C46.4621 1.41631 46.2581 1.31665 45.7406 1.31665C34.5679 1.33582 23.3953 1.34026 12.2227 1.33004C12.1411 1.33579 12.0593 1.33579 11.9778 1.33004C11.6627 1.27829 11.5501 1.42778 11.5583 1.80724C11.5762 2.78658 11.6007 3.76785 11.5501 4.74335C11.519 5.37197 11.7133 5.47355 12.203 5.47164C17.7992 5.44864 23.3953 5.46396 28.993 5.46396V5.45629ZM41.2039 12.2273C40.3697 12.2273 39.5355 12.2465 38.7013 12.2273C38.3569 12.2158 38.2524 12.3347 38.2589 12.7429C38.2785 14.2224 38.2785 15.7032 38.2589 17.1853C38.2589 17.5686 38.3308 17.7143 38.6883 17.7105C40.3371 17.6875 41.9842 17.6913 43.633 17.7105C43.9416 17.7105 44.0542 17.6319 44.0493 17.2409C44.0313 15.7365 44.028 14.232 44.0493 12.7275C44.0493 12.2848 43.9007 12.2235 43.5824 12.2331C42.7907 12.2427 41.994 12.2273 41.2039 12.2273ZM16.8801 24.5294C17.6964 24.5294 18.5126 24.5103 19.3174 24.539C19.6439 24.539 19.7271 24.4279 19.7222 24.056C19.7059 22.5228 19.7124 21.0049 19.7222 19.4794C19.7222 19.2015 19.6961 19.0482 19.3957 19.0501C17.6892 19.0654 15.9834 19.0654 14.278 19.0501C14.0152 19.0501 13.9286 19.1383 13.9319 19.4526C13.9428 21.0037 13.9428 22.5535 13.9319 24.102C13.9319 24.4566 14.0396 24.539 14.3204 24.5333C15.1693 24.5179 16.023 24.5294 16.8752 24.5294H16.8801Z" fill="white"/>
</g>
<defs>
<clipPath id="clip0_173_15685">
<rect width="58" height="64" fill="white"/>
</clipPath>
</defs>
</svg>
