<svg width="41" height="54" viewBox="0 0 41 54" fill="none" xmlns="http://www.w3.org/2000/svg">
<g clip-path="url(#clip0_173_15643)">
<path d="M16.3518 3.07957C21.6169 1.64946 26.534 2.33322 31 5.56568C33.598 7.44783 35.3891 9.97973 36.6557 12.918C37.2918 14.8067 37.6647 16.7764 37.7638 18.7705C37.9064 23.169 35.6623 26.6522 33.5562 30.1746C32.2231 32.393 30.7072 34.4853 29.2744 36.6393C25.9376 40.9284 22.6228 45.2314 19.0583 49.3317C18.7802 49.6348 18.5119 49.9845 18.2189 50.2956C16.8773 51.7422 15.3052 51.518 14.5327 49.7128C12.4893 44.9964 10.659 40.1922 8.96008 35.3394C8.72346 34.6635 8.46565 33.9912 8.21845 33.317C7.36851 30.1115 6.27748 26.9754 5.63248 23.7121C3.59456 13.465 6.84287 7.21518 16.3518 3.07957ZM18.7017 43.31C23.6773 37.3888 28.4432 31.3165 32.1658 24.4788C33.231 22.6268 33.765 20.5133 33.7078 18.3756C33.5309 13.6073 30.0901 8.66994 26.0152 7.52593C25.4888 7.1746 24.8966 6.93572 24.2748 6.82391C15.0896 4.63245 7.3542 12.7582 9.18886 21.1408C10.8501 28.7083 13.4341 35.9358 16.207 43.1204C16.4468 43.776 16.5627 44.9117 17.1169 44.9473C17.8603 44.9815 18.2293 43.9294 18.7017 43.31Z" fill="#272626"/>
<path d="M26.0162 7.51575C30.0844 8.6587 33.5319 13.5971 33.7088 18.3654C33.766 20.5032 33.232 22.6166 32.1667 24.4686C28.4447 31.3029 23.6782 37.3786 18.7026 43.2998C16.3994 37.6407 14.5661 31.7968 13.2215 25.8282C12.4759 22.4622 12.2855 19.1701 13.7853 15.8537C15.9092 11.1542 21.3235 7.34636 26.0162 7.51575ZM29.0535 22.0434C29.226 20.9897 29.1913 19.9127 28.9516 18.8738C28.7118 17.835 28.2716 16.8547 27.6561 15.9888C27.0406 15.1229 26.2618 14.3885 25.3642 13.8274C24.4667 13.2664 23.4679 12.8897 22.425 12.7189C20.2913 12.3767 18.1072 12.8971 16.3456 14.1675C14.5839 15.4379 13.3863 17.3561 13.0119 19.507C12.2617 23.8824 15.3873 28.2493 19.7654 28.9312C20.8219 29.0987 21.9014 29.0531 22.9416 28.7969C23.9818 28.5407 24.962 28.079 25.8257 27.4385C26.6893 26.7981 27.4193 25.9915 27.9733 25.0655C28.5274 24.1395 28.8945 23.1123 29.0535 22.0434Z" fill="#8D1B16"/>
<path d="M26.0172 7.51596C21.3245 7.34656 15.9102 11.1544 13.7708 15.8653C12.2731 19.1682 12.4635 22.4603 13.2069 25.8398C14.5515 31.8084 16.3849 37.6523 18.6881 43.3115C18.2158 43.9308 17.8452 44.9931 17.1034 44.9487C16.5486 44.9165 16.4467 43.7795 16.1934 43.1218C13.4205 35.9372 10.8366 28.7097 9.17528 21.1422C7.34062 12.7596 15.076 4.63389 24.2612 6.82535C24.8876 6.93163 25.4853 7.16669 26.0172 7.51596Z" fill="#8D1B16"/>
</g>
<defs>
<clipPath id="clip0_173_15643">
<rect width="32.8482" height="49.2723" fill="white" transform="translate(7.69531) rotate(8.98486)"/>
</clipPath>
</defs>
</svg>
