<svg width="277" height="332" viewBox="0 0 277 332" fill="none" xmlns="http://www.w3.org/2000/svg">
<g clip-path="url(#clip0_173_15613)">
<path d="M220.958 144.531C227.474 139.084 234.817 135.882 243.467 136.64C246.351 136.914 249.206 137.437 252 138.201C254.539 138.876 255.653 140.845 255.411 143.467C255.275 144.358 255.091 145.242 254.861 146.114C246.578 185.951 238.207 225.778 230.08 265.656C228.225 275.031 223.243 283.498 215.95 289.673C208.066 296.581 198.914 301.546 189.84 306.61C187.514 307.904 186.263 309.431 185.988 312.054C185.769 314.131 185.02 316.155 184.786 318.229C184.455 321.16 183.11 323.216 180.401 324.382L78.1918 303.131C76.1787 300.991 75.7648 298.528 76.6153 295.738C77.2559 293.642 77.3128 291.359 78.0428 289.307C79.895 284.102 78.9033 279.651 75.8785 275.047C71.6113 268.538 67.8265 261.678 64.2057 254.779C62.5574 251.633 60.485 250.055 56.999 249.6C51.7119 248.903 48.2507 245.61 46.2422 240.808C45.1928 238.323 44.9482 235.573 45.5426 232.942C47.9 221.958 50.1029 211.008 52.4459 200.055C52.6408 199.349 52.6723 198.608 52.5379 197.889C52.4036 197.169 52.1069 196.49 51.6706 195.902C48.4616 191.318 45.4044 186.633 42.2779 181.968C34.5489 170.395 39.0526 158.35 53.2699 154.479C51.7451 152.473 50.2778 150.742 49.0193 148.874C41.4213 137.46 45.9929 125.363 60.1893 121.554C58.5737 119.472 57.0392 117.711 55.7512 115.788C48.4967 104.928 52.6678 92.9448 65.1047 89.2038C67.2461 88.559 66.4268 87.8888 65.7125 86.8715C61.004 80.041 56.541 73.0155 51.5224 66.4156C45.306 58.2471 48.3926 47.3824 55.7471 42.5108C63.7942 37.185 73.8141 39.0798 79.4359 47.2313C80.5126 48.791 81.3774 50.5034 82.2968 52.0714C83.7256 51.6226 83.4088 50.6635 83.5526 49.9722C85.5682 40.278 87.5838 30.5839 89.5961 20.9054C89.9678 19.0708 90.6981 17.3276 91.745 15.7759C92.7919 14.2242 94.1348 12.8945 95.6966 11.8631C97.2585 10.8317 99.0085 10.1189 100.846 9.76558C102.684 9.41232 104.574 9.42553 106.406 9.80444L233.638 36.2583C235.5 36.6254 237.269 37.3618 238.842 38.4242C240.414 39.4866 241.758 40.8533 242.793 42.4437C243.829 44.034 244.536 45.8158 244.871 47.6839C245.207 49.552 245.165 51.4684 244.748 53.3202C239.638 77.8986 234.527 102.48 229.416 127.063C228.568 131.14 227.448 132.112 223.444 132.337C219.946 130.683 218.947 129.181 220.004 125.557C220.936 122.374 219.81 121.485 216.853 121.009C212.156 120.27 207.506 119.148 202.846 118.154C199.146 117.385 198.115 116.081 198.006 112.231C199.647 108.753 201.097 108.005 204.892 108.745C209.879 109.782 214.898 110.67 219.801 111.91C222.215 112.519 222.878 111.731 223.252 109.538C223.981 105.207 224.853 100.856 225.936 96.6311C226.557 94.2359 226.036 93.4311 223.559 92.9324C207.888 89.8053 192.256 86.4896 176.603 83.2351C171.561 82.1868 170.399 80.4454 171.421 75.4946C172.152 71.9751 172.836 68.4128 173.616 64.9363C173.895 63.5929 173.699 62.9619 172.235 62.6739C165.566 61.3583 158.916 59.9758 152.286 58.5262C150.872 58.2323 150.338 58.5965 150.072 59.9919C149.378 63.7241 148.574 67.4334 147.754 71.1394C146.935 74.8454 145.737 75.875 141.807 76.0987C138.298 74.3364 137.588 72.9431 138.326 69.1955C139.065 65.448 139.752 61.9439 140.582 58.3466C140.98 56.7083 140.595 56.0791 138.905 55.7359C127.104 53.3807 115.237 50.9133 103.403 48.4855C101.047 47.9956 98.6789 47.5607 96.3604 46.8901C94.3949 46.334 93.7807 47.0422 93.4015 48.9057C90.289 64.1905 87.0509 79.4493 83.874 94.729C83.6714 95.7031 83.4093 96.6485 84.0958 97.6025C86.4284 100.964 88.7247 104.343 91.0069 107.71C91.5661 108.646 92.0763 109.621 92.6846 110.518C98.8608 119.825 98.0946 127.214 90.1069 135.052C88.2438 136.131 86.3594 137.313 84.2241 137.771C82.5633 138.114 82.8935 138.772 83.4567 140.004C84.8618 143.058 87.5148 143.421 90.3309 143.63C94.8135 144.611 99.2927 145.608 103.785 146.583C107.767 147.411 108.716 148.518 109.088 152.603C107.128 156.236 105.838 156.844 101.676 155.979C98.589 155.337 95.491 154.75 92.3963 154.148C90.5197 153.282 89.8579 153.825 89.7205 155.944C89.2841 161.983 86.1342 166.336 80.9557 169.332C80.2572 169.736 79.2346 169.728 78.8368 170.736L97.9294 174.705L118.947 179.19C123.322 180.099 124.566 181.997 123.665 186.449C122.004 194.643 120.337 202.836 118.661 211.027C117.648 215.898 116.634 220.776 115.494 225.629C115.205 227.019 115.531 227.579 116.94 227.855C123.682 229.2 130.401 230.654 137.132 232.054C137.917 232.217 138.77 232.452 138.792 231.161L147.065 191.847C148.114 186.803 149.855 185.641 154.818 186.673C170.667 189.968 186.516 193.263 202.365 196.559C204.172 196.934 205.022 196.783 205.376 194.726C206.199 189.98 207.195 185.27 208.305 180.641C208.763 178.712 208.282 178.071 206.369 177.697C198.125 176.09 189.919 174.335 181.708 172.57C177.962 171.791 176.959 170.542 176.758 166.623C178.442 163.097 179.851 162.349 183.629 163.135C191.749 164.823 199.896 166.427 207.966 168.244C210.18 168.704 211.005 168.245 211.313 166.014C212.685 158.038 215.182 150.559 220.958 144.531ZM111.266 199.581C111.472 198.919 111.639 198.245 111.768 197.563C112.17 194.368 114.726 190.507 112.994 188.238C111.262 185.968 106.966 186.492 103.769 185.869C97.4151 184.548 91.0535 183.225 84.721 181.802C82.9304 181.429 82.3239 181.746 82.7908 183.638C83.5418 186.243 83.5517 189.007 82.8195 191.618C79.6858 201.448 71.1488 205.427 63.5057 203.805C61.9349 203.478 61.3366 203.952 61.0717 205.462C60.6014 208.118 60.0824 210.772 59.4253 213.381C58.9792 215.132 59.4143 215.837 61.2442 216.218C75.4413 219.104 89.6226 222.053 103.788 225.064C105.359 225.39 106.12 225.081 106.457 223.381C108.017 215.444 109.671 207.527 111.288 199.594L111.266 199.581ZM84.3624 270.615C89.7199 277.122 90.011 284.313 87.2561 291.927C87.2365 292.021 87.2153 292.123 87.1957 292.218C86.3198 294.421 87.1035 295.223 89.422 295.697C116.756 301.29 144.064 307 171.38 312.68C175.935 313.627 176.257 313.694 176.809 308.99C177.389 303.996 179.831 301.037 184.221 298.721C192.704 294.256 201.091 289.542 208.559 283.415C215.039 278.1 219.309 271.587 220.843 263.145C222.987 251.339 225.66 239.626 228.096 227.872C232.391 207.211 236.661 186.544 240.904 165.873C242.085 160.193 243.219 154.503 244.571 148.867C245.122 146.572 244.315 146.159 242.278 146.104C232.33 145.871 224.259 152.143 222.195 161.95C218.073 181.62 213.981 201.299 209.92 220.987C209.735 222.26 209.198 223.457 208.371 224.443C207.544 225.429 206.458 226.165 205.236 226.569C185.1 234.466 167.635 247.948 154.895 265.431C152.749 268.345 150.484 269.152 146.954 268.394C123.975 263.493 100.968 258.767 77.9638 253.984L74.2568 253.213L84.3624 270.615ZM163.973 51.1381L165.741 51.5055C187.087 55.9439 208.434 60.3823 229.769 64.8756C231.953 65.3296 232.731 64.9751 233.06 62.7241C233.586 59.1701 234.53 55.6538 235.195 52.1371C235.992 48.3034 234.603 46.2771 230.776 45.4157C224.901 44.1943 218.995 42.9663 213.151 41.7514L106.238 19.522C101.604 18.5586 99.7377 19.8096 98.7746 24.3628C98.1017 27.5994 97.5922 30.8782 96.6963 34.0439C96.0188 36.4355 96.5777 37.2155 99.0628 37.7158C120.726 42.0889 142.354 46.6348 163.999 51.1352L163.973 51.1381ZM158.288 246.197L154.722 245.455C124.553 239.183 94.3894 232.911 64.2308 226.641C61.8747 226.151 59.0992 224.525 57.3663 225.648C55.6334 226.771 56.0319 230.017 55.5249 232.338C54.3576 237.676 55.6632 239.554 61.1608 240.697L107.875 250.41C120.41 253.016 132.945 255.622 145.479 258.228C146.563 258.454 147.655 259.115 148.709 257.785C151.729 253.979 154.898 250.286 158.313 246.194L158.288 246.197ZM179.901 201.632C172.754 200.146 165.597 198.708 158.46 197.175C156.748 196.819 155.967 197.066 155.593 198.947C153.37 210.029 151.069 221.098 148.688 232.154C148.282 234.11 149.049 234.556 150.689 234.864C155.306 235.75 159.915 236.676 164.496 237.735C165.29 237.982 166.133 238.019 166.945 237.843C167.757 237.667 168.509 237.284 169.129 236.731C176.616 230.674 184.464 224.963 193.407 221.438C199.422 219.066 202.349 215.512 202.485 209.303C202.494 209.101 202.535 208.902 202.607 208.714C203.279 206.903 202.448 206.288 200.725 205.946C193.826 204.569 186.885 203.076 179.926 201.629L179.901 201.632ZM206.981 69.8903L189.97 66.3533C183.42 64.9914 183.546 65.0175 182.045 71.6061C181.478 74.0944 182.364 74.6393 184.504 75.0677C196.939 77.563 209.354 80.1935 221.771 82.7752C228.69 84.2138 228.596 84.1942 230.041 77.2827C230.495 75.0988 229.747 74.5581 227.818 74.1816C220.871 72.8356 213.94 71.3371 206.981 69.8903ZM48.3405 169.517C48.1097 170.544 48.0985 171.609 48.3075 172.641C48.5164 173.673 48.941 174.649 49.5533 175.506C51.3919 178.249 53.1926 181.016 55.0423 183.745C56.8921 186.473 58.7144 189.491 60.8592 192.1C62.0477 193.485 63.7136 194.372 65.5257 194.585C67.3379 194.798 69.1638 194.321 70.6408 193.249C73.5115 191.264 74.7436 187.546 72.9621 184.528C69.2829 178.232 65.1985 172.181 60.7349 166.415C58.9386 164.099 56.1257 163.678 53.3351 164.45C52.1134 164.745 50.9984 165.376 50.1159 166.272C49.2334 167.167 48.6185 168.291 48.3405 169.517ZM55.2628 136.224C54.9718 137.328 54.93 138.483 55.1402 139.605C55.3503 140.728 55.8073 141.789 56.4781 142.713C59.1489 146.694 61.7707 150.714 64.4684 154.685C65.5683 156.467 66.8293 158.145 68.2357 159.697C69.4895 160.87 71.1156 161.565 72.8299 161.661C74.5442 161.757 76.2377 161.247 77.6146 160.221C80.3089 158.257 81.5247 154.617 79.8591 151.672C76.1874 145.368 72.1172 139.304 67.6731 133.518C65.8896 131.18 63.1117 130.709 60.3057 131.437C59.1113 131.696 58.0109 132.278 57.1249 133.12C56.2389 133.962 55.6012 135.031 55.2818 136.211L55.2628 136.224ZM77.9743 128.423C81.4771 129.152 84.0042 128.267 85.8839 125.847C86.8136 124.771 87.36 123.417 87.4372 121.998C87.5144 120.578 87.1181 119.173 86.3105 118.003C82.6333 112.321 78.8461 106.616 74.9221 101.096C72.5981 97.8509 67.8725 97.3683 64.7212 99.6388C61.5699 101.909 60.8485 105.931 63.1481 109.491C66.5065 114.696 69.9693 119.834 73.4494 124.966C74.7163 126.754 76.1984 128.177 77.99 128.427L77.9743 128.423ZM76.1923 84.9773C77.5399 78.4962 78.7731 72.565 80.0063 66.6339C80.0641 66.1883 80.0254 65.7355 79.8926 65.3063C79.7599 64.8771 79.5363 64.4814 79.2371 64.1464C76.5757 60.1591 73.9636 56.133 71.2359 52.1893C68.8394 48.7406 64.5237 48.1384 60.949 50.6323C57.3744 53.1263 56.7731 56.886 59.2688 60.5273C62.6585 65.4774 66.0593 70.4133 69.4713 75.3352C71.6549 78.4282 73.7868 81.494 76.2081 84.9806L76.1923 84.9773Z" fill="#262627"/>
<path d="M198.076 112.171C198.185 116.021 199.216 117.326 202.915 118.095C207.58 119.065 212.225 120.211 216.922 120.95C219.856 121.42 220.982 122.31 220.073 125.498C219.017 129.122 220.015 130.624 223.514 132.278C222.665 136.363 221.828 140.45 221.005 144.541C215.206 150.564 212.708 158.043 211.607 166.1C211.299 168.33 210.467 168.821 208.259 168.329C200.166 166.507 192.023 164.888 183.922 163.22C180.144 162.435 178.737 163.175 177.052 166.709L167.153 164.585C170.777 159.725 174.588 154.993 177.976 149.969C183.355 141.991 189.035 134.099 189.154 123.79C189.14 119.117 188.477 114.47 187.183 109.98L198.076 112.171Z" fill="#9CC43B"/>
<path d="M240.918 165.884C236.622 186.545 232.352 207.211 228.109 227.883C225.659 239.667 223 251.35 220.857 263.156C219.323 271.598 215.052 278.111 208.572 283.426C201.104 289.553 192.717 294.267 184.234 298.732C179.845 301.048 177.402 304.007 176.823 309.001C176.277 313.673 175.949 313.638 171.394 312.691C144.078 307.011 116.763 301.332 89.4355 295.708C87.0794 295.218 86.3333 294.432 87.2092 292.229C87.2288 292.134 87.25 292.032 87.2696 291.938C90.0261 284.316 89.7334 277.133 84.3759 270.626C85.571 269.883 86.7204 270.581 87.8435 270.815C109.841 275.356 131.863 279.921 153.91 284.51C155.71 284.975 157.608 284.892 159.361 284.271C161.113 283.65 162.641 282.519 163.746 281.023C175.861 265.702 191.512 253.55 209.355 245.612C211.214 244.878 212.851 243.673 214.106 242.117C215.36 240.56 216.189 238.705 216.511 236.732C220.054 218.98 223.879 201.294 227.478 183.553C227.851 181.19 228.58 178.896 229.638 176.749C232.278 172.012 235.359 167.637 240.918 165.884Z" fill="#EBC09B"/>
<path d="M240.918 165.884C235.359 167.637 232.27 172.011 229.646 176.751C228.588 178.898 227.86 181.191 227.486 183.555C223.856 201.289 220.063 218.982 216.519 236.734C216.197 238.707 215.368 240.562 214.114 242.119C212.859 243.675 211.223 244.879 209.364 245.613C191.52 253.552 175.869 265.704 163.754 281.025C162.649 282.521 161.122 283.651 159.369 284.273C157.617 284.894 155.718 284.977 153.918 284.512C131.89 279.965 109.868 275.4 87.8517 270.817C86.7286 270.583 85.587 269.887 84.3841 270.628L74.2956 253.263L78.0025 254.033C101.006 258.816 124.014 263.542 146.993 268.443C150.527 269.178 152.788 268.394 154.934 265.48C167.674 247.997 185.139 234.515 205.275 226.618C206.497 226.215 207.582 225.478 208.41 224.492C209.237 223.506 209.773 222.31 209.959 221.036C213.973 201.338 218.064 181.659 222.234 161.999C224.274 152.187 232.369 145.921 242.317 146.153C244.322 146.201 245.161 146.621 244.61 148.916C243.233 154.514 242.123 160.209 240.918 165.884Z" fill="#CE9D75"/>
<path d="M90.372 135.074C98.3531 127.268 99.1256 119.848 92.9494 110.54C92.3274 109.591 91.831 108.668 91.2718 107.733C95.3781 87.9829 99.4839 68.2359 103.589 48.4914C115.417 50.9507 127.245 53.4099 139.091 55.7418C140.78 56.0929 141.167 56.7142 140.769 58.3525C139.915 61.945 139.219 65.5701 138.513 69.2015C137.807 72.8329 138.469 74.3391 141.994 76.1046C141.407 78.9275 140.847 81.7532 140.313 84.5817C117.404 93.1361 109.054 107.365 112.703 131.546C113.862 139.253 116.103 146.718 117.76 154.316L109.369 152.628C109.011 148.555 108.055 147.479 104.066 146.608C99.5653 145.673 95.0941 144.637 90.6115 143.655C91.0709 140.776 90.1534 137.938 90.372 135.074Z" fill="#4284F2"/>
<path d="M109.339 152.614L117.731 154.301C118.217 155.902 118.768 157.508 119.259 159.127C122.741 170.677 126.539 182.121 130.841 193.39C132.495 197.726 136.181 198.443 139.519 195.195C140.224 194.522 140.899 193.761 141.604 193.047C150.475 183.877 158.773 174.194 167.111 164.552L177.009 166.676C177.216 170.57 178.213 171.843 181.959 172.622C190.182 174.332 198.384 176.103 206.62 177.749C208.528 178.146 209.015 178.764 208.556 180.693C207.443 185.378 206.447 190.089 205.628 194.778C205.272 196.843 204.423 196.986 202.617 196.611C186.781 193.253 170.919 190.02 155.07 186.725C150.106 185.693 148.38 186.858 147.316 191.899L139.044 231.213C131.466 225.376 125.099 218.324 118.907 211.103C120.578 202.911 122.246 194.718 123.911 186.524C124.827 182.117 123.587 180.204 119.193 179.266L98.1758 174.781C96.6352 167.847 93.723 161.283 92.6191 154.219C95.7056 154.86 98.8086 155.424 101.898 156.05C106.098 156.816 107.38 156.247 109.339 152.614Z" fill="#FAC06C"/>
<path d="M163.998 51.1351C142.353 46.6347 120.726 42.0888 99.0656 37.7C96.5838 37.184 96.0531 36.4262 96.6991 34.0281C97.5949 30.8624 98.0888 27.5804 98.7774 24.347C99.7313 19.7592 101.621 18.5539 106.24 19.5062L213.17 41.7388C219.045 42.9603 224.951 44.1883 230.794 45.4032C234.635 46.2017 235.972 48.2827 235.214 52.1246C234.52 55.66 233.602 59.1655 233.078 62.7117C232.749 64.9626 231.969 65.3249 229.788 64.8631C208.459 60.3383 187.106 55.9314 165.759 51.493L163.998 51.1351ZM165.292 46.4869C168.905 47.2381 172.518 47.9892 176.131 48.7404C179.586 49.4589 182.057 48.0959 182.686 45.2681C183.315 42.4403 181.609 40.1268 178.178 39.3644C170.855 37.8089 163.525 36.2848 156.188 34.7921C152.795 34.0867 150.293 35.558 149.76 38.4384C149.226 41.3189 150.9 43.4371 154.118 44.1553C157.859 44.9987 161.582 45.7319 165.289 46.5026L165.292 46.4869Z" fill="#E5E5E5"/>
<path d="M140.283 84.5676C140.838 81.7434 141.398 78.9177 141.964 76.0905C145.878 75.8635 147.134 74.8706 147.911 71.1312C148.689 67.3918 149.511 63.711 150.229 59.9837C150.518 58.5933 151.031 58.2163 152.443 58.5181C159.074 59.9624 165.723 61.3449 172.391 62.6658C173.852 62.9695 174.083 63.5913 173.773 64.9281C172.97 68.4328 172.303 71.9984 171.577 75.4864C170.548 80.4356 171.718 82.1786 176.76 83.2269C192.413 86.4814 208.045 89.7971 223.716 92.9242C226.19 93.4386 226.722 94.2294 226.093 96.6229C224.995 100.878 224.123 105.228 223.409 109.53C223.03 111.746 222.372 112.511 219.958 111.902C215.023 110.655 210.008 109.751 205.049 108.737C201.263 107.95 199.81 108.713 198.163 112.222L187.235 110.008C184.595 103.001 180.605 96.8522 174.675 92.1526C164.396 84.0164 152.879 81.8349 140.283 84.5676Z" fill="#FAC06C"/>
<path d="M158.313 246.194C154.898 250.286 151.729 253.979 148.702 257.784C147.607 259.105 146.555 258.452 145.471 258.227C132.937 255.62 120.402 253.014 107.867 250.408L61.1529 240.695C55.6552 239.552 54.4111 237.654 55.5169 232.336C56.0069 229.979 55.6159 226.775 57.3583 225.646C59.1007 224.517 61.8981 226.156 64.2228 226.639C94.388 232.878 124.552 239.15 154.714 245.454L158.313 246.194Z" fill="#E5E5E5"/>
<path d="M179.926 201.629C186.885 203.076 193.825 204.569 200.786 205.967C202.506 206.324 203.34 206.924 202.668 208.735C202.596 208.923 202.555 209.122 202.546 209.324C202.371 215.524 199.444 219.079 193.468 221.459C184.541 224.987 176.677 230.695 169.19 236.752C168.57 237.305 167.818 237.688 167.006 237.864C166.194 238.04 165.351 238.003 164.557 237.756C159.98 236.681 155.371 235.756 150.75 234.885C149.117 234.546 148.327 234.127 148.75 232.175C151.13 221.119 153.431 210.05 155.654 198.968C156.044 197.09 156.812 196.824 158.521 197.195C165.622 198.705 172.779 200.144 179.926 201.629Z" fill="#9CC43B"/>
<path d="M111.287 199.594C109.639 207.521 107.992 215.439 106.462 223.39C106.109 225.087 105.402 225.416 103.793 225.073C89.619 222.077 75.4377 219.128 61.2491 216.227C59.4192 215.847 59.0172 215.14 59.4302 213.39C60.103 210.785 60.622 208.131 61.0766 205.472C61.3415 203.961 61.9632 203.492 63.5104 203.814C71.16 205.405 79.694 201.442 82.8244 191.627C83.5566 189.016 83.5466 186.253 82.7957 183.647C82.3288 181.755 82.9418 181.407 84.7259 181.811C91.0601 183.227 97.4249 184.534 103.774 185.878C105.501 190.835 108.04 195.47 111.287 199.594Z" fill="#9CC43B"/>
<path d="M103.599 48.4855C99.4944 68.2246 95.3887 87.9717 91.2813 107.727C88.9676 104.353 86.6713 100.974 84.3702 97.6188C83.7089 96.6618 83.9458 95.7194 84.1483 94.7453C87.3252 79.4656 90.5005 64.1938 93.6758 48.9219C94.0629 47.0601 94.6694 46.3503 96.6349 46.9064C98.8906 47.5639 101.265 47.9674 103.599 48.4855Z" fill="#2B68B1"/>
<path d="M206.981 69.8902C213.923 71.3337 220.855 72.8322 227.817 74.1815C229.741 74.5815 230.494 75.0987 230.04 77.2826C228.603 84.1958 228.689 84.2137 221.77 82.7751C209.353 80.1934 196.938 77.5629 184.503 75.0676C182.367 74.6235 181.477 74.0943 182.044 71.606C183.545 65.0174 183.419 64.9913 189.969 66.3532L206.981 69.8902Z" fill="#9CC43B"/>
<path d="M48.3405 169.517C48.6138 168.284 49.2275 167.153 50.1116 166.252C50.9957 165.35 52.1147 164.715 53.3417 164.418C56.1322 163.646 58.9452 164.067 60.7414 166.383C65.2051 172.15 69.2894 178.2 72.9687 184.497C74.7485 187.522 73.5102 191.231 70.6474 193.218C69.1703 194.289 67.3444 194.766 65.5323 194.553C63.7201 194.341 62.0542 193.454 60.8658 192.069C58.7209 189.459 56.9546 186.527 55.0489 183.713C53.1431 180.899 51.3984 178.217 49.5598 175.475C48.9507 174.622 48.5276 173.652 48.3175 172.625C48.1075 171.599 48.1152 170.54 48.3405 169.517Z" fill="#DBAF89"/>
<path d="M55.2814 136.211C55.6049 135.033 56.2457 133.967 57.1339 133.128C58.022 132.29 59.1235 131.711 60.3178 131.456C63.1238 130.728 65.9015 131.199 67.685 133.537C72.1291 139.323 76.1995 145.386 79.8712 151.691C81.5433 154.604 80.3276 158.244 77.6268 160.239C76.2499 161.266 74.5563 161.775 72.842 161.679C71.1277 161.584 69.5016 160.889 68.2478 159.715C66.8414 158.163 65.5805 156.486 64.4805 154.703C61.7829 150.733 59.1611 146.713 56.4902 142.732C55.8159 141.804 55.3575 140.737 55.1484 139.608C54.9392 138.48 54.9846 137.32 55.2814 136.211Z" fill="#DBAF89"/>
<path d="M77.9887 128.426C76.1971 128.177 74.6757 126.746 73.4795 124.973C69.9994 119.84 66.5366 114.703 63.1782 109.497C60.8786 105.937 61.5983 101.924 64.7513 99.6452C67.9042 97.3668 72.6282 97.8573 74.9522 101.102C78.9092 106.621 82.6699 112.296 86.3406 118.009C87.1482 119.179 87.5445 120.584 87.4673 122.004C87.3901 123.424 86.8437 124.778 85.914 125.854C84.0219 128.255 81.4915 129.155 77.9887 128.426Z" fill="#DBAF89"/>
<path d="M76.2079 84.9803C73.7866 81.4937 71.639 78.4246 69.5025 75.3415C66.0927 70.4091 62.6917 65.4731 59.2998 60.5335C56.7806 56.8873 57.4737 53.0811 60.9803 50.6386C64.4869 48.196 68.8707 48.7469 71.2671 52.1955C73.9949 56.1392 76.607 60.1654 79.2683 64.1526C79.5675 64.4877 79.7912 64.8833 79.9239 65.3125C80.0566 65.7417 80.0954 66.1945 80.0375 66.6401C78.7808 72.5664 77.5554 78.4992 76.2079 84.9803Z" fill="#EBC09B"/>
<path d="M118.914 211.031C125.106 218.252 131.512 225.312 139.05 231.141C139.028 232.431 138.199 232.202 137.39 232.034C130.659 230.634 123.928 229.235 117.198 227.835C115.792 227.543 115.439 226.994 115.752 225.609C116.855 220.773 117.87 215.895 118.914 211.031Z" fill="#FAC06C"/>
<path d="M92.6493 154.151C93.7296 161.211 96.6418 167.775 98.206 174.713L79.0898 170.739C79.4876 169.732 80.5102 169.739 81.2087 169.335C86.3921 166.315 89.5686 161.993 89.9735 155.947C90.1109 153.828 90.7727 153.286 92.6493 154.151Z" fill="#FAC06C"/>
<path d="M111.287 199.594C108.047 195.47 105.513 190.836 103.79 185.882C106.979 186.545 111.348 186.06 113.015 188.25C114.682 190.441 112.192 194.373 111.789 197.576C111.661 198.258 111.493 198.932 111.287 199.594Z" fill="#9CC43B"/>
<path d="M90.371 135.074C90.1524 137.938 91.0699 140.776 90.5948 143.652C87.7786 143.444 85.1259 143.081 83.7208 140.027C83.1575 138.795 82.8273 138.136 84.4882 137.793C86.647 137.341 88.4921 136.151 90.371 135.074Z" fill="#2B68B1"/>
<path d="M140.282 84.5676C152.871 81.8333 164.395 84.0164 174.586 92.1016C180.516 96.8013 184.475 102.943 187.146 109.957C188.438 114.449 189.101 119.099 189.115 123.774C188.972 134.079 183.292 141.97 177.937 149.954C174.547 154.986 170.739 159.709 167.114 164.57C158.776 174.211 150.479 183.894 141.608 193.064C140.926 193.742 140.246 194.527 139.522 195.212C136.187 198.445 132.502 197.728 130.844 193.408C126.542 182.138 122.744 170.694 119.263 159.144C118.779 157.528 118.244 155.925 117.734 154.319C116.077 146.722 113.836 139.257 112.677 131.55C109.063 107.359 117.373 93.1221 140.282 84.5676ZM141.436 178.916C153.831 165.643 165.752 152.01 175.289 136.446C178.004 132.238 179.493 127.357 179.587 122.35C179.689 111.184 172.104 99.2319 162.609 96.0775C161.409 95.1903 160.039 94.5621 158.584 94.2327C137.132 88.0185 117.982 106.115 121.406 125.939C124.493 143.841 129.812 161.051 135.569 178.172C136.062 179.741 136.213 182.403 137.516 182.559C139.272 182.744 140.248 180.333 141.436 178.916Z" fill="#272626"/>
<path d="M165.288 46.5028C161.581 45.732 157.866 44.9597 154.159 44.1889C150.941 43.4706 149.276 41.2314 149.801 38.472C150.325 35.7127 152.833 34.1359 156.229 34.8256C163.567 36.313 170.897 37.8371 178.219 39.3979C181.628 40.1066 183.323 42.4342 182.727 45.3016C182.131 48.169 179.634 49.461 176.172 48.7739C172.509 48.0287 168.901 47.254 165.288 46.5028Z" fill="#282728"/>
<path d="M162.609 96.0772C172.089 99.2284 179.689 111.184 179.588 122.35C179.493 127.357 178.004 132.238 175.289 136.446C165.755 151.994 153.831 165.643 141.436 178.916C136.616 165.406 132.926 151.519 130.404 137.399C129.002 129.444 128.913 121.714 132.824 114.135C138.35 103.4 151.556 95.1314 162.609 96.0772ZM168.175 130.426C168.698 127.983 168.735 125.46 168.283 123.002C167.831 120.544 166.9 118.2 165.542 116.102C164.184 114.004 162.426 112.195 160.368 110.777C158.311 109.36 155.994 108.361 153.551 107.839C148.559 106.796 143.357 107.758 139.067 110.516C134.776 113.274 131.741 117.609 130.617 122.584C128.352 132.768 135.271 143.311 145.534 145.413C148.005 145.926 150.554 145.946 153.032 145.469C155.511 144.993 157.871 144.03 159.976 142.637C162.081 141.244 163.889 139.448 165.296 137.352C166.703 135.256 167.682 132.902 168.175 130.426Z" fill="#8D1B16"/>
<path d="M162.61 96.0771C151.557 95.1313 138.35 103.4 132.795 114.161C128.89 121.709 128.979 129.439 130.375 137.425C132.897 151.546 136.587 165.433 141.407 178.942C140.224 180.335 139.242 182.77 137.486 182.586C136.18 182.445 136.072 179.775 135.539 178.198C129.783 161.077 124.464 143.867 121.377 125.965C117.953 106.142 137.102 88.0446 158.555 94.2588C160.018 94.5763 161.399 95.1955 162.61 96.0771Z" fill="#8D1B16"/>
<path d="M168.176 130.426C167.679 132.901 166.698 135.253 165.289 137.347C163.88 139.44 162.07 141.234 159.964 142.625C157.859 144.015 155.498 144.975 153.02 145.449C150.542 145.923 147.994 145.902 145.524 145.386C135.314 143.263 128.366 132.705 130.606 122.558C131.731 117.582 134.766 113.248 139.056 110.489C143.347 107.731 148.549 106.77 153.541 107.813C155.988 108.333 158.308 109.332 160.369 110.751C162.43 112.17 164.19 113.981 165.549 116.082C166.909 118.183 167.841 120.531 168.291 122.992C168.742 125.454 168.703 127.98 168.176 130.426ZM158.362 123.559C156.989 119.405 153.936 117.262 149.733 117.028C147.78 116.946 145.851 117.482 144.221 118.56C142.59 119.638 141.341 121.203 140.651 123.032C139.064 126.726 139.897 130.365 142.877 133.329C146.396 136.659 150.65 137.166 154.542 134.722C158.434 132.277 159.836 128.094 158.378 123.562L158.362 123.559Z" fill="#272626"/>
<path d="M142.895 133.317C139.911 130.369 139.118 126.737 140.669 123.019C141.359 121.19 142.608 119.626 144.239 118.548C145.869 117.47 147.798 116.933 149.75 117.015C153.993 117.258 157.007 119.393 158.38 123.547C150.454 123.284 145.581 126.352 142.895 133.317Z" fill="#FAC06C"/>
<path d="M142.897 133.317C145.582 126.352 150.456 123.284 158.379 123.562C159.837 128.094 158.397 132.302 154.561 134.709C150.726 137.116 146.4 136.643 142.897 133.317Z" fill="#FAC06C"/>
</g>
<defs>
<clipPath id="clip0_173_15613">
<rect width="221" height="293" fill="white" transform="translate(59.6445) rotate(11.7455)"/>
</clipPath>
</defs>
</svg>
