<svg width="28" height="24" viewBox="0 0 28 24" fill="none" xmlns="http://www.w3.org/2000/svg">
<g clip-path="url(#clip0_173_15670)">
<path d="M-0.000158939 10.637C0.292941 9.91261 0.891897 9.56916 1.5724 9.30575C8.62805 6.5804 15.6828 3.85161 22.7368 1.11938C23.5337 0.812066 24.331 0.505184 25.1287 0.198733C25.6385 0.00763166 26.1482 -0.0737212 26.6796 0.0799346C27.6074 0.347218 28.1617 1.3079 27.954 2.38349C27.5895 4.32033 27.1894 6.2507 26.8071 8.18237C26.0348 12.056 25.2608 15.9297 24.4852 19.8034C24.3233 20.6156 24.1844 21.4342 23.9844 22.2374C23.7613 23.1283 23.244 23.7868 22.3061 23.9637C21.5657 24.1045 20.9272 23.8204 20.3588 23.3607C19.477 22.6467 18.6002 21.9262 17.7209 21.2083C17.1895 20.7744 16.6543 20.3444 16.128 19.9028C16.0006 19.7969 15.9279 19.784 15.7967 19.9028C14.8715 20.7796 13.9361 21.6434 13.0071 22.5137C12.5484 22.9437 12.0399 23.2729 11.4002 23.3168C10.3641 23.3878 9.51924 22.7926 9.12292 21.7002C8.80051 20.8106 8.50103 19.9132 8.19136 19.0183C7.62937 17.3953 7.06485 15.7735 6.51178 14.1465C6.49215 14.0734 6.45276 14.0072 6.39806 13.9554C6.34336 13.9036 6.27549 13.8683 6.20209 13.8534C4.69963 13.4235 3.19846 12.9857 1.69473 12.5622C0.955609 12.3505 0.310775 12.0186 -0.0078125 11.249L-0.000158939 10.637ZM17.4903 8.88222C17.4189 8.77376 17.3718 8.88223 17.3157 8.90289C17.2596 8.92354 17.2303 8.93259 17.1882 8.95325C14.2148 10.4915 11.2413 12.0285 8.2678 13.5642C8.09449 13.6533 8.11108 13.7372 8.16078 13.8805C8.62549 15.214 9.08892 16.5482 9.55108 17.8833C9.80595 18.6103 10.0519 19.3386 10.3157 20.112C10.3409 20.0538 10.363 19.9944 10.382 19.9338C10.7311 18.5044 11.0816 17.0763 11.4218 15.6457C11.4777 15.3938 11.6017 15.1626 11.7799 14.9781C12.1227 14.6217 12.4566 14.255 12.7994 13.8909L17.3794 8.94937L17.4916 8.88093L17.4571 8.82154L17.4368 8.83962L17.4903 8.88222ZM11.7557 21.3877C11.8551 21.3748 11.9048 21.2883 11.9685 21.2289C12.6873 20.5618 13.4043 19.8934 14.1196 19.2236C14.2929 19.0609 14.5937 18.8983 14.5988 18.7278C14.5988 18.5212 14.2764 18.4011 14.0891 18.2462C13.6519 17.8782 13.2046 17.5231 12.7421 17.1461C12.6325 17.5941 12.5305 18.0047 12.4324 18.4153C12.1979 19.3984 11.9639 20.3819 11.7302 21.3658C11.7231 21.3833 11.7175 21.4015 11.7136 21.42C11.7557 21.4355 11.7557 21.4071 11.7557 21.3877ZM2.09869 10.8836L2.10507 10.9443C3.70055 11.4074 5.29477 11.8723 6.8877 12.3388C7.01514 12.375 7.09668 12.304 7.19098 12.2549L18.353 6.47925C19.2349 6.02345 20.1142 5.56378 20.9973 5.10927C21.1371 5.03037 21.2967 4.99464 21.4564 5.00647C21.616 5.01829 21.7687 5.07716 21.8958 5.17583C22.0228 5.2745 22.1186 5.40865 22.1713 5.56178C22.2241 5.7149 22.2315 5.88032 22.1926 6.03765C22.1467 6.25587 21.9964 6.40695 21.8537 6.56189C19.118 9.50589 16.3812 12.4482 13.643 15.3887C13.4786 15.5656 13.5016 15.6353 13.6762 15.7761C15.2054 17.0131 16.7312 18.2552 18.2536 19.5026C19.3177 20.3703 20.3767 21.2457 21.4497 22.1018C21.9594 22.5098 22.264 22.3884 22.4195 21.7519C22.4373 21.6809 22.4526 21.6085 22.4679 21.5362C23.2249 17.7529 23.9818 13.9701 24.7388 10.1876C25.268 7.54236 25.7961 4.89664 26.3228 2.25049C26.4311 1.70172 26.2693 1.55969 25.7506 1.734C25.6984 1.75079 25.6474 1.77144 25.5964 1.79081L24.2762 2.3073L4.36449 10.012L2.09869 10.8836Z" fill="white"/>
<path d="M17.3145 8.90324C17.3705 8.87741 17.4177 8.77411 17.489 8.88257L17.3756 8.95101L17.3145 8.90324Z" fill="#FDFDFD"/>
<path d="M17.4896 8.88249L17.4297 8.84375L17.4501 8.82568L17.4845 8.88507L17.4896 8.88249Z" fill="#FDFDFD"/>
<path d="M11.755 21.3877C11.755 21.4096 11.7487 21.4354 11.7168 21.4199C11.7206 21.4014 11.7262 21.3832 11.7334 21.3657L11.755 21.3877Z" fill="#FDFDFD"/>
</g>
<defs>
<clipPath id="clip0_173_15670">
<rect width="28" height="24" fill="white"/>
</clipPath>
</defs>
</svg>
