<svg width="28" height="24" viewBox="0 0 28 24" fill="none" xmlns="http://www.w3.org/2000/svg">
<g clip-path="url(#clip0_173_15675)">
<path d="M0 2.10187C0.0592906 2.08345 0.0501456 2.00808 0.0615477 1.94612C0.156143 1.39 0.375605 0.896966 0.684484 0.546609C0.993364 0.196251 1.37365 0.00904196 1.76389 0.0152133C2.9041 0.00516513 4.0443 0.0152133 5.18451 0.0152133C5.99861 0.0152133 6.57328 0.581244 6.89481 1.67482C7.27076 3.03481 7.71197 4.35389 8.21515 5.62208C8.62049 6.58998 9.07201 7.51449 9.5663 8.38867C9.62559 8.49585 9.68032 8.59968 9.79434 8.55614C9.92547 8.50422 9.91635 8.3468 9.91635 8.19943C9.91635 7.20969 9.91635 6.21827 9.91635 5.22853C9.9214 5.15623 9.90944 5.08356 9.88248 5.02263C9.85551 4.96169 9.81516 4.91616 9.76812 4.89359C8.97796 4.2907 8.61194 3.15526 8.81376 1.95953C9.01557 0.763798 9.70655 0.0118574 10.5902 0.00850797C12.0846 0.00850797 13.5794 0.00850797 15.0746 0.00850797C16.1715 0.00850797 16.8989 1.0803 16.9115 2.69973C16.9195 4.5871 16.9115 6.47449 16.9115 8.36187C16.9115 9.08031 17.1851 9.48893 17.5956 9.40352C17.8396 9.35328 17.9662 9.09538 18.0825 8.81738L20.567 2.87558L21.2249 1.30639C21.3832 0.896821 21.6151 0.558924 21.8951 0.329484C22.1752 0.100044 22.4927 -0.0121458 22.8132 0.00515532C23.934 0.00515532 25.0548 0.00515532 26.1757 0.00515532C26.9042 0.00515532 27.4641 0.45565 27.7982 1.41022C28.1322 2.3648 28.0479 3.29759 27.6226 4.16508L24.1575 11.2256C23.8348 11.8821 23.8337 12.1115 24.1575 12.7613C25.3137 15.1059 26.4744 17.4621 27.6237 19.8201C28.3797 21.3726 27.9316 23.3755 26.7264 23.8879C26.5146 23.9684 26.2963 24.005 26.0776 23.9968C25.0389 23.9968 24.0001 23.9851 22.9614 23.9968C22.6287 24.0167 22.2978 23.9151 21.9983 23.7012C21.6989 23.4872 21.4402 23.1676 21.2454 22.7709C20.1896 20.7613 19.1144 18.7667 18.0528 16.7638C17.9 16.4774 17.729 16.2614 17.4588 16.2932C17.143 16.3334 16.9309 16.6868 16.9229 17.2377C16.9138 17.8657 16.9229 18.4954 16.9229 19.1251C16.9229 21.5601 16.0985 23.1578 14.4886 23.7757C13.934 24.0007 13.353 24.048 12.7848 23.9145C12.2167 23.781 11.6748 23.4698 11.1957 23.002C7.17416 19.2474 4.0785 14.2233 1.75819 8.13747C1.12322 6.52201 0.549941 4.8559 0.0410318 3.14688C0.0410318 3.14688 0.023932 3.13684 0.0159506 3.13349L0 2.10187ZM12.849 1.72004C12.1283 1.72004 11.4089 1.72004 10.6894 1.72004C10.5712 1.72021 10.4534 1.73987 10.3382 1.77865C10.219 1.82615 10.1135 1.92925 10.0376 2.07241C9.96176 2.21557 9.91961 2.39107 9.9175 2.57247C9.91854 2.76032 9.96164 2.94244 10.0401 3.09074C10.1187 3.23904 10.2282 3.34527 10.3519 3.39305C10.5395 3.44765 10.7313 3.46399 10.922 3.44163C11.036 3.44163 11.0873 3.47678 11.0873 3.66268C11.0816 5.24191 11.0999 6.82282 11.0725 8.40038C11.0695 8.80648 10.9779 9.20043 10.811 9.52424C10.6441 9.84804 10.4108 10.0846 10.1455 10.199C9.60052 10.4485 9.05322 10.189 8.66327 9.47554C8.39076 8.97314 8.12167 8.47073 7.86513 7.9499C7.02366 6.25679 6.39881 4.38951 5.85379 2.46361C5.80109 2.22778 5.69548 2.02517 5.55424 1.8889C5.41299 1.75262 5.24445 1.69074 5.07616 1.71335C4.01007 1.72675 2.944 1.71335 1.87791 1.71335C1.27931 1.71335 1.01706 2.32293 1.27816 3.10501C1.594 4.05289 1.91097 4.99741 2.24277 5.93357C4.49924 12.3108 7.5755 17.6078 11.7281 21.4981C12.5263 22.2417 13.3563 22.4661 14.2537 22.0876C15.0701 21.7527 15.8226 20.8802 15.7496 19.2407C15.7188 18.5473 15.7348 17.849 15.7496 17.1523C15.7656 16.1877 16.0415 15.4207 16.6173 14.9317C17.4326 14.2367 18.3356 14.5432 18.9616 15.7121C20.0417 17.7307 21.12 19.752 22.1964 21.7761C22.3286 22.024 22.4666 22.2568 22.7026 22.2585C23.8952 22.2585 25.089 22.2735 26.2828 22.2585C26.7104 22.2585 26.9464 21.607 26.7572 21.0426C26.7008 20.89 26.6359 20.7443 26.5633 20.6072L23.2088 13.7778C22.5817 12.5 22.5817 11.4952 23.2088 10.2208L26.6294 3.26077C26.7435 3.02966 26.8461 2.80021 26.8165 2.49374C26.7674 1.99134 26.5348 1.72004 26.1107 1.71836C25.0537 1.71836 23.9967 1.72841 22.9398 1.71836C22.7765 1.70144 22.6135 1.75607 22.4714 1.87532C22.3293 1.99457 22.2146 2.17308 22.1416 2.38824C21.7038 3.48181 21.2408 4.55361 20.7882 5.63379C20.2021 7.03383 19.6164 8.43333 19.0311 9.83225C18.6435 10.755 18.0825 11.234 17.3414 11.1385C16.4121 11.0179 15.7565 9.93775 15.7508 8.54105C15.7428 6.64028 15.7508 4.7395 15.7508 2.8471C15.7508 2.0533 15.5341 1.73846 14.9868 1.73678C14.2674 1.70831 13.5593 1.71168 12.849 1.71168V1.72004Z" fill="white"/>
</g>
<defs>
<clipPath id="clip0_173_15675">
<rect width="28" height="24" fill="white"/>
</clipPath>
</defs>
</svg>
