<svg width="36" height="32" viewBox="0 0 36 32" fill="none" xmlns="http://www.w3.org/2000/svg">
<g clip-path="url(#clip0_173_15677)" filter="url(#filter0_d_173_15677)">
<path d="M4 5.69121C4.13352 5.47884 4.10682 5.21385 4.16691 4.97615C4.80281 2.06334 6.94418 0.033127 9.52119 0.0214368C15.1737 -0.00454144 20.8274 -0.00454144 26.4821 0.0214368C27.9249 0.0213057 29.3096 0.684871 30.3362 1.86832C31.3628 3.05177 31.9486 4.65978 31.9666 6.34391C32.02 10.1108 32.02 13.8828 31.9666 17.66C31.9165 21.2528 29.433 23.9903 26.3185 23.9942C21.712 23.9942 17.1054 23.9942 12.4988 23.9942H9.68643C6.95419 23.9942 4.77441 21.9737 4.13349 18.8758C4.0951 18.681 4.13349 18.4861 4.00831 18.3147L4 5.69121ZM17.9733 22.6556H26.2484C26.612 22.6651 26.9754 22.6266 27.3316 22.5407C28.3329 22.2923 29.229 21.6453 29.8666 20.7105C30.5042 19.7757 30.8436 18.6112 30.8267 17.4165C30.8344 13.8042 30.8344 10.1913 30.8267 6.5777C30.8183 3.60839 28.8939 1.34828 26.3553 1.34244C20.7756 1.33075 15.1943 1.34244 9.61467 1.34244C9.10339 1.33357 8.59481 1.43053 8.11252 1.62884C6.27657 2.40819 5.14494 4.30007 5.1416 6.61473C5.1416 10.2062 5.1416 13.7977 5.1416 17.3892C5.14193 17.6759 5.15811 17.9622 5.19001 18.2465C5.46708 20.6527 7.28968 22.6167 9.36264 22.642C12.2384 22.6829 15.1059 22.6556 17.9733 22.6556Z" fill="white"/>
<path d="M14.2743 12.3118C14.2743 10.5803 14.2743 8.8482 14.2743 7.11546C14.2743 6.34585 14.6966 6.05945 15.2624 6.44523C17.8216 8.19097 20.3763 9.93736 22.9266 11.6844C23.4641 12.0526 23.4691 12.6215 22.935 12.9859C20.3758 14.7407 17.8138 16.4943 15.249 18.2465C14.7066 18.6167 14.2743 18.3166 14.2743 17.5743C14.2732 15.8169 14.2732 14.0627 14.2743 12.3118ZM15.431 16.5728L21.6265 12.341L15.431 8.10329V16.5728Z" fill="white"/>
</g>
<defs>
<filter id="filter0_d_173_15677" x="0" y="0" width="36" height="32" filterUnits="userSpaceOnUse" color-interpolation-filters="sRGB">
<feFlood flood-opacity="0" result="BackgroundImageFix"/>
<feColorMatrix in="SourceAlpha" type="matrix" values="0 0 0 0 0 0 0 0 0 0 0 0 0 0 0 0 0 0 127 0" result="hardAlpha"/>
<feOffset dy="4"/>
<feGaussianBlur stdDeviation="2"/>
<feComposite in2="hardAlpha" operator="out"/>
<feColorMatrix type="matrix" values="0 0 0 0 0 0 0 0 0 0 0 0 0 0 0 0 0 0 0.25 0"/>
<feBlend mode="normal" in2="BackgroundImageFix" result="effect1_dropShadow_173_15677"/>
<feBlend mode="normal" in="SourceGraphic" in2="effect1_dropShadow_173_15677" result="shape"/>
</filter>
<clipPath id="clip0_173_15677">
<rect width="28" height="24" fill="white" transform="translate(4)"/>
</clipPath>
</defs>
</svg>
