<svg width="1440" height="268" viewBox="0 0 1440 268" fill="none" xmlns="http://www.w3.org/2000/svg">
<g clip-path="url(#clip0_209_3)">
<path d="M-151.643 242.473C-139.908 231.864 -127.437 222.093 -114.322 213.233C-107.861 208.385 -101.399 203.613 -94.6344 199.371C-90.633 196.673 -87.6397 192.731 -86.1212 188.161C-81.6014 175.649 -78.5407 162.661 -76.9997 149.453C-73.7013 120.168 -63.8855 91.9857 -48.2677 66.9621C-29.831 39.2065 -2.16107 18.8208 29.8721 9.3928C33.9767 8.10507 38.0813 7.04472 42.1859 5.98423C46.2905 4.92375 47.6587 5.98422 49.2549 9.99892C49.3074 11.3976 48.8402 12.7662 47.9424 13.8425C47.0447 14.9189 45.7795 15.6272 44.3901 15.8315C40.5135 16.8162 36.7891 17.8011 32.6845 19.0131C8.37553 26.1864 -13.3947 40.0805 -30.1009 59.0841C-49.5265 82.8444 -61.9705 111.501 -66.0541 141.878C-67.7952 156.209 -70.6154 170.388 -74.4912 184.297C-74.4912 184.676 -74.4912 185.131 -74.0352 185.434C-61.3413 176.874 -48.4195 168.466 -35.2696 160.588C-30.0486 157.388 -25.3561 153.402 -21.3594 148.771C-15.8302 142.419 -11.0133 135.485 -6.99362 128.092C4.31337 106.528 12.0156 83.2705 15.8098 59.2358C16.4939 55.3726 18.6222 53.4788 21.5106 53.9333C24.399 54.3877 25.8437 57.0391 25.2356 60.9023C24.6275 64.7655 23.9432 67.9468 23.1831 71.4313C19.1591 91.2567 12.5136 110.463 3.42036 128.546C1.29204 132.561 -0.912643 136.121 -3.11696 140.439L-2.43266 141.348C-1.7467 140.633 -0.981812 139.997 -0.15242 139.454C13.3016 131.879 26.7556 123.774 40.7417 116.729C48.4058 112.937 54.7584 106.949 58.9846 99.5341C69.3516 81.8411 76.191 62.319 79.1273 42.0406C79.8874 37.4957 81.8639 35.2991 85.0564 35.8294C88.2489 36.3596 89.3128 38.8593 88.6287 43.4043C85.7316 63.6145 79.2726 83.1553 69.5498 101.125C70.918 101.958 71.9062 101.125 72.8943 100.443C85.3602 94.6106 97.7504 88.4747 110.292 82.945C114.719 81.0182 118.474 77.8292 121.086 73.7794C122.721 71.3398 124.218 68.8109 125.57 66.2046C130.417 56.2468 134.041 45.7428 136.364 34.9202C136.426 34.2398 136.638 33.5816 136.986 32.9929C137.334 32.4042 137.809 31.8997 138.376 31.5158C138.943 31.1318 139.588 30.8779 140.265 30.7723C140.943 30.6668 141.635 30.7123 142.293 30.9055C142.934 31.0851 143.532 31.3943 144.048 31.8135C144.565 32.2327 144.989 32.753 145.296 33.3425C145.602 33.9319 145.784 34.5778 145.83 35.2401C145.875 35.9024 145.784 36.5671 145.561 37.1928C144.161 44.0973 142.229 50.8842 139.784 57.4935C137.96 62.4929 135.756 67.2652 133.552 72.2646C134.812 72.2825 136.052 71.9408 137.124 71.2798C143.433 68.7044 149.818 65.9774 156.203 63.7049C165.4 60.1447 174.598 56.5844 183.871 53.1757C184.846 52.7594 185.916 52.6152 186.967 52.758C188.018 52.9008 189.01 53.3254 189.837 53.9866C190.665 54.6479 191.297 55.5209 191.665 56.5122C192.033 57.5034 192.124 58.5756 191.928 59.6144C191.72 60.8065 191.194 61.9207 190.405 62.8404C189.616 63.76 188.593 64.4512 187.443 64.8411C171.709 72.416 156.127 80.4453 140.697 88.6262C139.861 89.0807 138.644 89.1565 138.264 90.5957L142.065 91.4291C153.934 93.9668 165.274 98.5283 175.586 104.912C179.082 107.109 179.918 109.685 178.322 112.487C176.726 115.29 174.141 115.517 170.721 113.624C156.293 104.701 139.733 99.7839 122.758 99.3827C121.382 99.3232 120.016 99.6374 118.805 100.292L92.2015 115.441C86.6527 118.547 81.1036 121.88 74.8707 125.516C84.3048 126.59 93.5867 128.724 102.539 131.879C113.597 135.485 124.108 140.583 133.779 147.029C134.553 147.407 135.224 147.966 135.733 148.66C136.242 149.353 136.574 150.159 136.701 151.008C136.828 151.858 136.746 152.725 136.462 153.536C136.179 154.347 135.701 155.078 135.072 155.664C132.791 157.634 130.663 156.876 128.382 155.664C108.531 142.882 85.57 135.709 61.9487 134.909C60.2505 134.868 58.5801 135.344 57.1599 136.272L16.874 161.27C13.2255 163.542 9.27306 165.966 5.62453 168.845L8.13303 169.375C28.4101 171.735 48.1726 177.337 66.6613 185.964C75.9117 190.176 84.743 195.248 93.0375 201.114C93.6993 201.449 94.2822 201.92 94.7476 202.497C95.2129 203.073 95.5499 203.742 95.7367 204.458C95.9235 205.174 95.956 205.921 95.8313 206.65C95.7067 207.38 95.428 208.074 95.0139 208.688C94.6963 209.374 94.2175 209.974 93.6179 210.436C93.0183 210.898 92.3156 211.209 91.5696 211.343C90.8236 211.477 90.0562 211.429 89.3325 211.204C88.6089 210.98 87.9504 210.585 87.4127 210.052C59.219 191.113 26.2958 180.36 -7.67746 178.995C-8.74426 178.938 -9.80391 179.202 -10.7181 179.752C-26.5284 190.433 -42.4149 201.038 -57.8452 212.4C-60.2732 213.815 -62.519 215.519 -64.5338 217.475C-63.5456 217.475 -62.8619 218.081 -62.1018 218.233C-41.6451 222.524 -21.7691 229.211 -2.8887 238.155C6.27907 242.631 16.0655 245.721 26.1477 247.32C53.1631 251.069 80.6914 247.157 105.579 236.034C118.748 230.344 130.814 222.396 141.228 212.552L149.97 204.977C151.663 204.759 153.384 205.049 154.911 205.81C157.115 210.052 156.887 211.491 153.543 214.824C124.994 242.391 86.6472 257.563 46.8986 257.016C28.2574 257.221 9.81831 253.152 -6.99362 245.124C-27.9781 235.099 -50.3005 228.134 -73.2752 224.444C-74.0484 224.286 -74.8479 224.306 -75.6121 224.503C-76.3763 224.7 -77.085 225.068 -77.684 225.581L-99.8031 242.245C-103.3 244.972 -104.592 244.972 -108.012 242.245C-109.229 238.155 -108.697 236.716 -105.2 234.064C-58.8324 198.566 -10.6255 165.519 39.2214 135.06C55.7918 124.91 72.5905 115.139 89.313 105.14L94.7095 102.185C94.7095 102.185 95.1656 101.579 95.1656 101.428C95.1656 101.276 94.4814 101.428 94.1774 101.428C92.2504 101.99 90.4281 102.86 88.7809 104.003C79.0514 108.397 69.4739 113.093 60.1245 118.168L58.6042 118.774C8.2872 144.662 -40.2854 173.786 -86.8055 205.962C-104.795 218.435 -122.531 231.388 -140.013 244.821C-141.321 245.557 -142.363 246.685 -142.99 248.045C-143.618 249.405 -143.8 250.927 -143.51 252.396C-143.4 253.699 -142.865 254.93 -141.986 255.901C-141.108 256.872 -139.934 257.53 -138.645 257.774C-137.607 258.004 -136.528 257.971 -135.506 257.68C-134.484 257.389 -133.551 256.849 -132.792 256.107L-123.367 248.532C-120.022 245.805 -118.578 245.805 -115.31 248.532C-114.669 249.835 -114.532 251.327 -114.925 252.724C-115.317 254.121 -116.212 255.325 -117.438 256.107C-120.63 258.531 -123.671 261.107 -126.787 263.682C-129.005 265.814 -131.822 267.224 -134.863 267.725C-137.904 268.225 -141.025 267.793 -143.814 266.485C-146.699 265.154 -149.128 263.009 -150.804 260.317C-152.479 257.624 -153.326 254.502 -153.239 251.335C-153.239 250.805 -153.239 250.199 -153.695 249.896L-151.643 242.473ZM96.1538 101.049L96.9142 100.595L97.7502 100.14L98.2823 99.7613H97.598L96.6859 100.14L95.6977 100.595C95.6977 100.595 95.0136 101.049 95.6977 101.428C96.3818 101.807 95.9257 101.201 96.1538 101.049Z" fill="#030404"/>
<path d="M58.4512 7.95349C58.9072 3.4843 59.9714 2.34815 64.152 1.89366C89.9293 -1.00126 115.98 -0.440772 141.608 3.56015C158.818 5.97537 175.854 9.49223 192.611 14.0891C193.067 14.0891 193.599 14.4679 193.979 14.0891L236.469 27.6483C239.256 29.4662 242.307 30.8459 245.515 31.7388C250.304 33.9355 251.216 36.2837 248.555 40.9802C236.166 62.7201 224.384 84.8389 214.046 107.791C209.029 118.85 205.077 130.516 200.44 141.575C192.757 160.445 182.693 178.263 170.492 194.599C167.527 198.462 166.463 198.765 162.055 196.796L160.762 194.296C160.738 193.134 160.948 191.98 161.379 190.9C161.809 189.82 162.453 188.837 163.271 188.009C176.262 170.513 186.727 151.287 194.359 130.894C198.54 120.138 202.721 109.306 207.585 98.7767C216.555 79.385 226.436 60.5233 236.926 42.0405C238.142 39.9196 237.686 39.3895 235.71 38.632C212.695 29.9567 189.034 23.0929 164.943 18.1038C132.143 10.7302 98.3562 8.73453 64.9119 12.1954C64.2075 12.35 63.4792 12.3622 62.77 12.2315C62.0607 12.1007 61.3848 11.8296 60.7825 11.4342C60.1801 11.0387 59.6635 10.5269 59.2631 9.92905C58.8626 9.33122 58.5867 8.65949 58.4512 7.95349Z" fill="#030404"/>
<path d="M88.932 104.837C72.2095 114.835 55.4109 124.607 38.8404 134.758C-11.0065 165.216 -59.2134 198.263 -105.581 233.761C-109.078 236.413 -109.61 237.852 -108.393 241.942C-110.826 243.988 -113.258 246.033 -115.995 248.002C-119.263 245.351 -120.707 245.351 -124.052 248.002L-133.477 255.577C-134.236 256.318 -135.169 256.859 -136.192 257.15C-137.214 257.441 -138.292 257.473 -139.33 257.244C-139.33 257.244 -139.33 256.562 -138.798 256.41C-119.415 241.261 -99.8802 226.111 -79.9653 211.87C-60.0503 197.629 -40.2113 183.54 -20.0684 169.829C-7.07042 160.891 6.15564 152.331 19.4576 143.847C32.7596 135.363 44.7694 128.167 57.4633 120.289C58.2994 119.759 60.0477 119.835 59.4396 117.865C68.789 112.79 78.3661 108.094 88.0956 103.7L88.932 104.837Z" fill="#A6C946"/>
<path d="M160.914 194.069L162.206 196.569C160.499 199.418 158.343 201.976 155.822 204.143C154.295 203.383 152.574 203.093 150.881 203.31C153.813 199.813 157.185 196.707 160.914 194.069Z" fill="#91B030"/>
<path d="M160.914 194.069C157.204 196.613 153.832 199.617 150.881 203.007L142.14 210.582C140.924 209.976 140.239 210.582 139.327 211.491C130.151 218.084 120.258 223.624 109.835 228.005C94.7595 234.15 78.8515 238.031 62.6319 239.518C41.1806 241.504 19.5785 237.929 -0.0774384 229.141C-10.567 224.747 -21.1325 220.884 -31.8501 217.248C-35.3466 215.96 -39.4512 215.355 -42.7957 214.294C-44.468 213.764 -46.2164 213.612 -47.7367 213.158C-50.7771 212.097 -54.1973 212.703 -56.9337 210.431C-41.7315 199.068 -25.6175 188.464 -9.80711 177.783C-8.89292 177.232 -7.83328 176.968 -6.76647 177.025C27.2068 178.391 60.13 189.144 88.3237 208.083C88.8614 208.615 89.5198 209.01 90.2435 209.235C90.9671 209.46 91.7346 209.507 92.4806 209.373C93.2266 209.24 93.9293 208.929 94.5289 208.467C95.1284 208.004 95.6073 207.405 95.9249 206.719C96.339 206.105 96.6176 205.41 96.7423 204.681C96.867 203.952 96.8345 203.204 96.6477 202.488C96.4608 201.772 96.1239 201.104 95.6585 200.527C95.1932 199.951 94.6103 199.479 93.9485 199.144C85.654 193.279 76.8227 188.207 67.5723 183.994C49.0836 175.368 29.3211 169.766 9.04401 167.405L6.53551 166.875C10.5641 164.224 14.1365 161.8 17.785 159.3L58.0709 134.303C59.4911 133.374 61.1615 132.899 62.8597 132.939C86.481 133.739 109.442 140.913 129.294 153.695C131.574 155.134 133.702 155.892 135.982 153.695C136.612 153.108 137.09 152.378 137.373 151.567C137.657 150.756 137.739 149.888 137.612 149.039C137.485 148.189 137.152 147.383 136.644 146.69C136.135 145.997 135.464 145.437 134.69 145.059C125.019 138.613 114.508 133.516 103.45 129.91C94.4977 126.755 85.2158 124.62 75.7817 123.547C82.0146 119.911 87.5636 116.578 93.1125 113.472L119.716 98.3223C120.927 97.6681 122.293 97.3537 123.669 97.4131C140.644 97.8143 157.204 102.731 171.632 111.654C174.976 113.548 177.637 113.169 179.233 110.518C180.829 107.867 179.993 105.064 176.497 102.943C166.185 96.5588 154.845 91.9973 142.976 89.4596L139.175 88.6262C139.555 87.187 140.772 87.1114 141.608 86.6569C156.81 78.476 172.62 70.598 188.354 62.8716C189.504 62.4817 190.527 61.7907 191.316 60.8711C192.105 59.9515 192.631 58.837 192.839 57.6449C193.035 56.6061 192.944 55.5339 192.576 54.5426C192.207 53.5514 191.576 52.6786 190.748 52.0174C189.921 51.3561 188.929 50.9313 187.878 50.7885C186.827 50.6457 185.757 50.7902 184.782 51.2064C175.509 54.6151 166.311 58.1752 157.114 61.7354C150.729 64.2351 144.344 66.9621 138.035 69.3103C136.963 69.9713 135.723 70.313 134.463 70.2951C136.667 65.2957 138.871 60.5234 140.696 55.524C142.814 49.3633 144.491 43.0603 145.712 36.6625C145.935 36.0368 146.026 35.3721 145.98 34.7099C145.935 34.0476 145.753 33.4016 145.447 32.8122C145.14 32.2227 144.715 31.7024 144.199 31.2833C143.682 30.8641 143.085 30.5551 142.444 30.3755C141.786 30.1823 141.094 30.1368 140.416 30.2423C139.739 30.3478 139.094 30.6015 138.527 30.9855C137.96 31.3695 137.485 31.874 137.137 32.4627C136.789 33.0514 136.577 33.7098 136.515 34.3901C134.192 45.2128 130.568 55.7166 125.721 65.6743C124.369 68.2807 122.872 70.8096 121.237 73.2492C118.625 77.2989 114.869 80.4882 110.443 82.415C97.9009 87.9447 85.5112 94.0803 73.0454 99.913C72.0572 100.367 71.0691 101.428 69.7009 100.595C79.4236 82.6251 85.8827 63.0842 88.7798 42.874C89.4639 38.6321 88.1714 36.0566 85.207 35.2991C82.2426 34.5416 80.0385 36.9656 79.2784 41.5106C76.3421 61.789 69.5022 81.3111 59.1352 99.004C54.909 106.419 48.5568 112.406 40.8928 116.199C26.9067 122.941 13.4526 130.894 -0.0013504 138.924C-0.83075 139.467 -1.59564 140.102 -2.2816 140.817L-2.9659 139.908C-0.761581 135.97 1.44263 132.334 3.57095 128.016C12.6642 109.932 19.3101 90.7264 23.3342 70.901C24.0943 67.4165 24.7781 63.8565 25.3862 60.372C25.9942 56.8875 24.4741 53.8575 21.6617 53.403C18.8493 52.9485 16.6449 54.8423 15.9608 58.7055C12.1667 82.7403 4.46443 105.997 -6.84255 127.561C-10.8622 134.955 -15.6796 141.889 -21.2088 148.241C-25.2055 152.872 -29.8975 156.858 -35.1185 160.058C-48.2685 167.633 -61.1907 176.344 -73.8846 184.903C-74.5687 184.903 -74.4166 184.146 -74.3406 183.767C-70.4648 169.858 -67.6446 155.678 -65.9035 141.348C-61.8199 110.971 -49.3754 82.3144 -29.9498 58.5541C-13.2437 39.5504 8.52659 25.6561 32.8356 18.4828C36.7122 17.2708 40.4365 16.286 44.5411 15.3012C45.9306 15.0969 47.1953 14.3887 48.093 13.3123C48.9908 12.2359 49.4585 10.8673 49.406 9.46866L58.603 7.65076C58.9287 9.03518 59.7913 10.2346 61.0021 10.987C62.2128 11.7393 63.6735 11.9834 65.0643 11.6654C98.5085 8.20456 132.295 10.2002 165.095 17.5739C189.186 22.5629 212.847 29.4265 235.861 38.1018C237.838 38.8593 238.294 39.3896 237.078 41.5106C226.588 59.9933 216.706 78.8548 207.737 98.2465C202.872 108.776 198.692 119.608 194.511 130.364C186.879 150.757 176.414 169.983 163.423 187.479C162.567 188.343 161.902 189.375 161.47 190.51C161.038 191.645 160.849 192.857 160.914 194.069Z" fill="#9DC53C"/>
<path d="M59.7432 118.244C60.3513 120.214 58.603 120.138 57.7669 120.668C45.149 128.243 32.3791 136.197 19.7612 144.226C7.14336 152.256 -6.76682 161.27 -19.7647 170.208C-40.0344 183.944 -60.0001 197.957 -79.6617 212.249C-99.5766 226.717 -119.111 241.639 -138.494 256.789C-138.494 256.789 -138.494 257.32 -139.026 257.622C-140.316 257.379 -141.489 256.721 -142.367 255.75C-143.246 254.779 -143.781 253.547 -143.891 252.244C-144.181 250.776 -143.999 249.253 -143.372 247.893C-142.744 246.534 -141.702 245.405 -140.395 244.669C-123.013 231.287 -105.277 218.334 -87.1867 205.81C-40.6666 173.634 7.90596 144.51 58.2229 118.623L59.7432 118.244Z" fill="#B3CE4A"/>
<path d="M-57.0864 210.885C-54.35 213.158 -50.9293 212.552 -47.8888 213.612C-46.3686 214.067 -44.6206 214.218 -42.9484 214.748C-39.3758 215.809 -35.3472 216.415 -32.0027 217.703C-21.2851 221.338 -10.7196 225.277 -0.230068 229.595C19.4259 238.383 41.028 241.958 62.4792 239.973C78.6988 238.485 94.6069 234.605 109.682 228.459C120.106 224.078 129.999 218.539 139.175 211.946C140.087 211.264 140.771 210.431 141.987 211.037C131.573 220.881 119.507 228.829 106.338 234.519C81.4502 245.642 53.9215 249.554 26.906 245.805C16.8239 244.205 7.03743 241.116 -2.13035 236.64C-21.0108 227.696 -40.8863 221.009 -61.343 216.718C-62.1031 216.718 -62.7872 216.263 -63.7754 215.96C-61.7606 214.005 -59.5144 212.3 -57.0864 210.885Z" fill="#91B030"/>
<path d="M88.9325 104.837L88.4004 103.776C90.0476 102.632 91.8699 101.762 93.7969 101.201L94.329 101.882L88.9325 104.837Z" fill="#9DC53C"/>
<path d="M97.5215 99.6857H98.2819L97.7497 100.064L97.5215 99.6857Z" fill="#9DC53C"/>
<path d="M96.6855 100.064L97.5976 99.6857C97.5647 99.8354 97.5647 99.9905 97.5976 100.14L96.7616 100.595L96.6855 100.064Z" fill="#9DC53C"/>
<path d="M95.6973 100.519L96.6854 100.064V100.595L95.9255 101.049L95.6973 100.519Z" fill="#9DC53C"/>
<path d="M96.1532 101.049C96.1532 101.049 95.5453 101.428 95.4693 101.049C95.3933 100.67 95.4693 100.443 95.4693 100.216L96.1532 101.049Z" fill="#9DC53C"/>
<path d="M93.7969 101.504C93.7969 101.504 94.481 100.898 94.7851 101.504C95.0891 102.11 94.7851 101.958 94.329 102.261L93.7969 101.504Z" fill="#9DC53C"/>
</g>
<g clip-path="url(#clip1_209_3)">
<path d="M1592.64 242.473C1580.91 231.864 1568.44 222.093 1555.32 213.233C1548.86 208.385 1542.4 203.613 1535.63 199.371C1531.63 196.673 1528.64 192.731 1527.12 188.161C1522.6 175.649 1519.54 162.661 1518 149.453C1514.7 120.168 1504.89 91.9857 1489.27 66.9621C1470.83 39.2065 1443.16 18.8208 1411.13 9.3928C1407.02 8.10507 1402.92 7.04472 1398.81 5.98423C1394.71 4.92375 1393.34 5.98422 1391.75 9.99892C1391.69 11.3976 1392.16 12.7662 1393.06 13.8425C1393.96 14.9189 1395.22 15.6272 1396.61 15.8315C1400.49 16.8162 1404.21 17.8011 1408.32 19.0131C1432.62 26.1864 1454.39 40.0805 1471.1 59.0841C1490.53 82.8444 1502.97 111.501 1507.05 141.878C1508.8 156.209 1511.62 170.388 1515.49 184.297C1515.49 184.676 1515.49 185.131 1515.04 185.434C1502.34 176.874 1489.42 168.466 1476.27 160.588C1471.05 157.388 1466.36 153.402 1462.36 148.771C1456.83 142.419 1452.01 135.485 1447.99 128.092C1436.69 106.528 1428.98 83.2705 1425.19 59.2358C1424.51 55.3726 1422.38 53.4788 1419.49 53.9333C1416.6 54.3877 1415.16 57.0391 1415.76 60.9023C1416.37 64.7655 1417.06 67.9468 1417.82 71.4313C1421.84 91.2567 1428.49 110.463 1437.58 128.546C1439.71 132.561 1441.91 136.121 1444.12 140.439L1443.43 141.348C1442.75 140.633 1441.98 139.997 1441.15 139.454C1427.7 131.879 1414.24 123.774 1400.26 116.729C1392.59 112.937 1386.24 106.949 1382.02 99.5341C1371.65 81.8411 1364.81 62.319 1361.87 42.0406C1361.11 37.4957 1359.14 35.2991 1355.94 35.8294C1352.75 36.3596 1351.69 38.8593 1352.37 43.4043C1355.27 63.6145 1361.73 83.1553 1371.45 101.125C1370.08 101.958 1369.09 101.125 1368.11 100.443C1355.64 94.6106 1343.25 88.4747 1330.71 82.945C1326.28 81.0182 1322.53 77.8292 1319.91 73.7794C1318.28 71.3398 1316.78 68.8109 1315.43 66.2046C1310.58 56.2468 1306.96 45.7428 1304.64 34.9202C1304.57 34.2398 1304.36 33.5816 1304.01 32.9929C1303.67 32.4042 1303.19 31.8997 1302.62 31.5158C1302.06 31.1318 1301.41 30.8779 1300.73 30.7723C1300.06 30.6668 1299.36 30.7123 1298.71 30.9055C1298.07 31.0851 1297.47 31.3943 1296.95 31.8135C1296.44 32.2327 1296.01 32.753 1295.7 33.3425C1295.4 33.9319 1295.22 34.5778 1295.17 35.2401C1295.12 35.9024 1295.22 36.5671 1295.44 37.1928C1296.84 44.0973 1298.77 50.8842 1301.22 57.4935C1303.04 62.4929 1305.24 67.2652 1307.45 72.2646C1306.19 72.2825 1304.95 71.9408 1303.88 71.2798C1297.57 68.7044 1291.18 65.9774 1284.8 63.7049C1275.6 60.1447 1266.4 56.5844 1257.13 53.1757C1256.15 52.7594 1255.08 52.6152 1254.03 52.758C1252.98 52.9008 1251.99 53.3254 1251.16 53.9866C1250.34 54.6479 1249.7 55.5209 1249.34 56.5122C1248.97 57.5034 1248.88 58.5756 1249.07 59.6144C1249.28 60.8065 1249.81 61.9207 1250.6 62.8404C1251.38 63.76 1252.41 64.4512 1253.56 64.8411C1269.29 72.416 1284.87 80.4453 1300.3 88.6262C1301.14 89.0807 1302.36 89.1565 1302.74 90.5957L1298.94 91.4291C1287.07 93.9668 1275.73 98.5283 1265.41 104.912C1261.92 107.109 1261.08 109.685 1262.68 112.487C1264.27 115.29 1266.86 115.517 1270.28 113.624C1284.71 104.701 1301.27 99.7839 1318.24 99.3827C1319.62 99.3232 1320.98 99.6374 1322.19 100.292L1348.8 115.441C1354.35 118.547 1359.9 121.88 1366.13 125.516C1356.7 126.59 1347.41 128.724 1338.46 131.879C1327.4 135.485 1316.89 140.583 1307.22 147.029C1306.45 147.407 1305.78 147.966 1305.27 148.66C1304.76 149.353 1304.43 150.159 1304.3 151.008C1304.17 151.858 1304.25 152.725 1304.54 153.536C1304.82 154.347 1305.3 155.078 1305.93 155.664C1308.21 157.634 1310.34 156.876 1312.62 155.664C1332.47 142.882 1355.43 135.709 1379.05 134.909C1380.75 134.868 1382.42 135.344 1383.84 136.272L1424.13 161.27C1427.77 163.542 1431.73 165.966 1435.38 168.845L1432.87 169.375C1412.59 171.735 1392.83 177.337 1374.34 185.964C1365.09 190.176 1356.26 195.248 1347.96 201.114C1347.3 201.449 1346.72 201.92 1346.25 202.497C1345.79 203.073 1345.45 203.742 1345.26 204.458C1345.08 205.174 1345.04 205.921 1345.17 206.65C1345.29 207.38 1345.57 208.074 1345.99 208.688C1346.3 209.374 1346.78 209.974 1347.38 210.436C1347.98 210.898 1348.68 211.209 1349.43 211.343C1350.18 211.477 1350.94 211.429 1351.67 211.204C1352.39 210.98 1353.05 210.585 1353.59 210.052C1381.78 191.113 1414.7 180.36 1448.68 178.995C1449.74 178.938 1450.8 179.202 1451.72 179.752C1467.53 190.433 1483.41 201.038 1498.85 212.4C1501.27 213.815 1503.52 215.519 1505.53 217.475C1504.55 217.475 1503.86 218.081 1503.1 218.233C1482.65 222.524 1462.77 229.211 1443.89 238.155C1434.72 242.631 1424.93 245.721 1414.85 247.32C1387.84 251.069 1360.31 247.157 1335.42 236.034C1322.25 230.344 1310.19 222.396 1299.77 212.552L1291.03 204.977C1289.34 204.759 1287.62 205.049 1286.09 205.81C1283.88 210.052 1284.11 211.491 1287.46 214.824C1316.01 242.391 1354.35 257.563 1394.1 257.016C1412.74 257.221 1431.18 253.152 1447.99 245.124C1468.98 235.099 1491.3 228.134 1514.28 224.444C1515.05 224.286 1515.85 224.306 1516.61 224.503C1517.38 224.7 1518.09 225.068 1518.68 225.581L1540.8 242.245C1544.3 244.972 1545.59 244.972 1549.01 242.245C1550.23 238.155 1549.7 236.716 1546.2 234.064C1499.83 198.566 1451.63 165.519 1401.78 135.06C1385.21 124.91 1368.41 115.139 1351.69 105.14L1346.29 102.185C1346.29 102.185 1345.83 101.579 1345.83 101.428C1345.83 101.276 1346.52 101.428 1346.82 101.428C1348.75 101.99 1350.57 102.86 1352.22 104.003C1361.95 108.397 1371.53 113.093 1380.88 118.168L1382.4 118.774C1432.71 144.662 1481.29 173.786 1527.81 205.962C1545.79 218.435 1563.53 231.388 1581.01 244.821C1582.32 245.557 1583.36 246.685 1583.99 248.045C1584.62 249.405 1584.8 250.927 1584.51 252.396C1584.4 253.699 1583.86 254.93 1582.99 255.901C1582.11 256.872 1580.93 257.53 1579.64 257.774C1578.61 258.004 1577.53 257.971 1576.51 257.68C1575.48 257.389 1574.55 256.849 1573.79 256.107L1564.37 248.532C1561.02 245.805 1559.58 245.805 1556.31 248.532C1555.67 249.835 1555.53 251.327 1555.92 252.724C1556.32 254.121 1557.21 255.325 1558.44 256.107C1561.63 258.531 1564.67 261.107 1567.79 263.682C1570.01 265.814 1572.82 267.224 1575.86 267.725C1578.9 268.225 1582.03 267.793 1584.81 266.485C1587.7 265.154 1590.13 263.009 1591.8 260.317C1593.48 257.624 1594.33 254.502 1594.24 251.335C1594.24 250.805 1594.24 250.199 1594.7 249.896L1592.64 242.473ZM1344.85 101.049L1344.09 100.595L1343.25 100.14L1342.72 99.7613H1343.4L1344.31 100.14L1345.3 100.595C1345.3 100.595 1345.99 101.049 1345.3 101.428C1344.62 101.807 1345.07 101.201 1344.85 101.049Z" fill="#030404"/>
<path d="M1382.55 7.95349C1382.09 3.4843 1381.03 2.34815 1376.85 1.89366C1351.07 -1.00126 1325.02 -0.440772 1299.39 3.56015C1282.18 5.97537 1265.15 9.49223 1248.39 14.0891C1247.93 14.0891 1247.4 14.4679 1247.02 14.0891L1204.53 27.6483C1201.74 29.4662 1198.69 30.8459 1195.49 31.7388C1190.7 33.9355 1189.78 36.2837 1192.44 40.9802C1204.83 62.7201 1216.62 84.8389 1226.95 107.791C1231.97 118.85 1235.92 130.516 1240.56 141.575C1248.24 160.445 1258.31 178.263 1270.51 194.599C1273.47 198.462 1274.54 198.765 1278.95 196.796L1280.24 194.296C1280.26 193.134 1280.05 191.98 1279.62 190.9C1279.19 189.82 1278.55 188.837 1277.73 188.009C1264.74 170.513 1254.27 151.287 1246.64 130.894C1242.46 120.138 1238.28 109.306 1233.41 98.7767C1224.45 79.385 1214.56 60.5233 1204.07 42.0405C1202.86 39.9196 1203.31 39.3895 1205.29 38.632C1228.3 29.9567 1251.97 23.0929 1276.06 18.1038C1308.86 10.7302 1342.64 8.73453 1376.09 12.1954C1376.79 12.35 1377.52 12.3622 1378.23 12.2315C1378.94 12.1007 1379.62 11.8296 1380.22 11.4342C1380.82 11.0387 1381.34 10.5269 1381.74 9.92905C1382.14 9.33122 1382.41 8.65949 1382.55 7.95349Z" fill="#030404"/>
<path d="M1352.07 104.837C1368.79 114.835 1385.59 124.607 1402.16 134.758C1452.01 165.216 1500.21 198.263 1546.58 233.761C1550.08 236.413 1550.61 237.852 1549.39 241.942C1551.83 243.988 1554.26 246.033 1556.99 248.002C1560.26 245.351 1561.71 245.351 1565.05 248.002L1574.48 255.577C1575.24 256.318 1576.17 256.859 1577.19 257.15C1578.21 257.441 1579.29 257.473 1580.33 257.244C1580.33 257.244 1580.33 256.562 1579.8 256.41C1560.42 241.261 1540.88 226.111 1520.97 211.87C1501.05 197.629 1481.21 183.54 1461.07 169.829C1448.07 160.891 1434.84 152.331 1421.54 143.847C1408.24 135.363 1396.23 128.167 1383.54 120.289C1382.7 119.759 1380.95 119.835 1381.56 117.865C1372.21 112.79 1362.63 108.094 1352.9 103.7L1352.07 104.837Z" fill="#A6C946"/>
<path d="M1280.09 194.069L1278.79 196.569C1280.5 199.418 1282.66 201.976 1285.18 204.143C1286.71 203.383 1288.43 203.093 1290.12 203.31C1287.19 199.813 1283.81 196.707 1280.09 194.069Z" fill="#91B030"/>
<path d="M1280.09 194.069C1283.8 196.613 1287.17 199.617 1290.12 203.007L1298.86 210.582C1300.08 209.976 1300.76 210.582 1301.67 211.491C1310.85 218.084 1320.74 223.624 1331.16 228.005C1346.24 234.15 1362.15 238.031 1378.37 239.518C1399.82 241.504 1421.42 237.929 1441.08 229.141C1451.57 224.747 1462.13 220.884 1472.85 217.248C1476.35 215.96 1480.45 215.355 1483.8 214.294C1485.47 213.764 1487.22 213.612 1488.74 213.158C1491.78 212.097 1495.2 212.703 1497.93 210.431C1482.73 199.068 1466.62 188.464 1450.81 177.783C1449.89 177.232 1448.83 176.968 1447.77 177.025C1413.79 178.391 1380.87 189.144 1352.68 208.083C1352.14 208.615 1351.48 209.01 1350.76 209.235C1350.03 209.46 1349.27 209.507 1348.52 209.373C1347.77 209.24 1347.07 208.929 1346.47 208.467C1345.87 208.004 1345.39 207.405 1345.08 206.719C1344.66 206.105 1344.38 205.41 1344.26 204.681C1344.13 203.952 1344.17 203.204 1344.35 202.488C1344.54 201.772 1344.88 201.104 1345.34 200.527C1345.81 199.951 1346.39 199.479 1347.05 199.144C1355.35 193.279 1364.18 188.207 1373.43 183.994C1391.92 175.368 1411.68 169.766 1431.96 167.405L1434.46 166.875C1430.44 164.224 1426.86 161.8 1423.21 159.3L1382.93 134.303C1381.51 133.374 1379.84 132.899 1378.14 132.939C1354.52 133.739 1331.56 140.913 1311.71 153.695C1309.43 155.134 1307.3 155.892 1305.02 153.695C1304.39 153.108 1303.91 152.378 1303.63 151.567C1303.34 150.756 1303.26 149.888 1303.39 149.039C1303.52 148.189 1303.85 147.383 1304.36 146.69C1304.87 145.997 1305.54 145.437 1306.31 145.059C1315.98 138.613 1326.49 133.516 1337.55 129.91C1346.5 126.755 1355.78 124.62 1365.22 123.547C1358.99 119.911 1353.44 116.578 1347.89 113.472L1321.28 98.3223C1320.07 97.6681 1318.71 97.3537 1317.33 97.4131C1300.36 97.8143 1283.8 102.731 1269.37 111.654C1266.02 113.548 1263.36 113.169 1261.77 110.518C1260.17 107.867 1261.01 105.064 1264.5 102.943C1274.81 96.5588 1286.15 91.9973 1298.02 89.4596L1301.82 88.6262C1301.44 87.187 1300.23 87.1114 1299.39 86.6569C1284.19 78.476 1268.38 70.598 1252.65 62.8716C1251.5 62.4817 1250.47 61.7907 1249.68 60.8711C1248.9 59.9515 1248.37 58.837 1248.16 57.6449C1247.96 56.6061 1248.06 55.5339 1248.42 54.5426C1248.79 53.5514 1249.42 52.6786 1250.25 52.0174C1251.08 51.3561 1252.07 50.9313 1253.12 50.7885C1254.17 50.6457 1255.24 50.7902 1256.22 51.2064C1265.49 54.6151 1274.69 58.1752 1283.89 61.7354C1290.27 64.2351 1296.66 66.9621 1302.97 69.3103C1304.04 69.9713 1305.28 70.313 1306.54 70.2951C1304.33 65.2957 1302.13 60.5234 1300.3 55.524C1298.19 49.3633 1296.51 43.0603 1295.29 36.6625C1295.07 36.0368 1294.97 35.3721 1295.02 34.7099C1295.07 34.0476 1295.25 33.4016 1295.55 32.8122C1295.86 32.2227 1296.28 31.7024 1296.8 31.2833C1297.32 30.8641 1297.91 30.5551 1298.56 30.3755C1299.21 30.1823 1299.91 30.1368 1300.58 30.2423C1301.26 30.3478 1301.91 30.6015 1302.47 30.9855C1303.04 31.3695 1303.51 31.874 1303.86 32.4627C1304.21 33.0514 1304.42 33.7098 1304.49 34.3901C1306.81 45.2128 1310.43 55.7166 1315.28 65.6743C1316.63 68.2807 1318.13 70.8096 1319.76 73.2492C1322.37 77.2989 1326.13 80.4882 1330.56 82.415C1343.1 87.9447 1355.49 94.0803 1367.95 99.913C1368.94 100.367 1369.93 101.428 1371.3 100.595C1361.58 82.6251 1355.12 63.0842 1352.22 42.874C1351.54 38.6321 1352.83 36.0566 1355.79 35.2991C1358.76 34.5416 1360.96 36.9656 1361.72 41.5106C1364.66 61.789 1371.5 81.3111 1381.86 99.004C1386.09 106.419 1392.44 112.406 1400.11 116.199C1414.09 122.941 1427.55 130.894 1441 138.924C1441.83 139.467 1442.6 140.102 1443.28 140.817L1443.97 139.908C1441.76 135.97 1439.56 132.334 1437.43 128.016C1428.34 109.932 1421.69 90.7264 1417.67 70.901C1416.91 67.4165 1416.22 63.8565 1415.61 60.372C1415.01 56.8875 1416.53 53.8575 1419.34 53.403C1422.15 52.9485 1424.36 54.8423 1425.04 58.7055C1428.83 82.7403 1436.54 105.997 1447.84 127.561C1451.86 134.955 1456.68 141.889 1462.21 148.241C1466.21 152.872 1470.9 156.858 1476.12 160.058C1489.27 167.633 1502.19 176.344 1514.88 184.903C1515.57 184.903 1515.42 184.146 1515.34 183.767C1511.46 169.858 1508.64 155.678 1506.9 141.348C1502.82 110.971 1490.38 82.3144 1470.95 58.5541C1454.24 39.5504 1432.47 25.6561 1408.16 18.4828C1404.29 17.2708 1400.56 16.286 1396.46 15.3012C1395.07 15.0969 1393.8 14.3887 1392.91 13.3123C1392.01 12.2359 1391.54 10.8673 1391.59 9.46866L1382.4 7.65076C1382.07 9.03518 1381.21 10.2346 1380 10.987C1378.79 11.7393 1377.33 11.9834 1375.94 11.6654C1342.49 8.20456 1308.7 10.2002 1275.91 17.5739C1251.81 22.5629 1228.15 29.4265 1205.14 38.1018C1203.16 38.8593 1202.71 39.3896 1203.92 41.5106C1214.41 59.9933 1224.29 78.8548 1233.26 98.2465C1238.13 108.776 1242.31 119.608 1246.49 130.364C1254.12 150.757 1264.59 169.983 1277.58 187.479C1278.43 188.343 1279.1 189.375 1279.53 190.51C1279.96 191.645 1280.15 192.857 1280.09 194.069Z" fill="#9DC53C"/>
<path d="M1381.26 118.244C1380.65 120.214 1382.4 120.138 1383.23 120.668C1395.85 128.243 1408.62 136.197 1421.24 144.226C1433.86 152.256 1447.77 161.27 1460.76 170.208C1481.03 183.944 1501 197.957 1520.66 212.249C1540.58 226.717 1560.11 241.639 1579.49 256.789C1579.49 256.789 1579.49 257.32 1580.03 257.622C1581.32 257.379 1582.49 256.721 1583.37 255.75C1584.25 254.779 1584.78 253.547 1584.89 252.244C1585.18 250.776 1585 249.253 1584.37 247.893C1583.74 246.534 1582.7 245.405 1581.39 244.669C1564.01 231.287 1546.28 218.334 1528.19 205.81C1481.67 173.634 1433.09 144.51 1382.78 118.623L1381.26 118.244Z" fill="#B3CE4A"/>
<path d="M1498.09 210.885C1495.35 213.158 1491.93 212.552 1488.89 213.612C1487.37 214.067 1485.62 214.218 1483.95 214.748C1480.38 215.809 1476.35 216.415 1473 217.703C1462.29 221.338 1451.72 225.277 1441.23 229.595C1421.57 238.383 1399.97 241.958 1378.52 239.973C1362.3 238.485 1346.39 234.605 1331.32 228.459C1320.89 224.078 1311 218.539 1301.83 211.946C1300.91 211.264 1300.23 210.431 1299.01 211.037C1309.43 220.881 1321.49 228.829 1334.66 234.519C1359.55 245.642 1387.08 249.554 1414.09 245.805C1424.18 244.205 1433.96 241.116 1443.13 236.64C1462.01 227.696 1481.89 221.009 1502.34 216.718C1503.1 216.718 1503.79 216.263 1504.78 215.96C1502.76 214.005 1500.51 212.3 1498.09 210.885Z" fill="#91B030"/>
<path d="M1352.07 104.837L1352.6 103.776C1350.95 102.632 1349.13 101.762 1347.2 101.201L1346.67 101.882L1352.07 104.837Z" fill="#9DC53C"/>
<path d="M1343.48 99.6857H1342.72L1343.25 100.064L1343.48 99.6857Z" fill="#9DC53C"/>
<path d="M1344.31 100.064L1343.4 99.6857C1343.44 99.8354 1343.44 99.9905 1343.4 100.14L1344.24 100.595L1344.31 100.064Z" fill="#9DC53C"/>
<path d="M1345.3 100.519L1344.31 100.064V100.595L1345.07 101.049L1345.3 100.519Z" fill="#9DC53C"/>
<path d="M1344.85 101.049C1344.85 101.049 1345.45 101.428 1345.53 101.049C1345.61 100.67 1345.53 100.443 1345.53 100.216L1344.85 101.049Z" fill="#9DC53C"/>
<path d="M1347.2 101.504C1347.2 101.504 1346.52 100.898 1346.21 101.504C1345.91 102.11 1346.21 101.958 1346.67 102.261L1347.2 101.504Z" fill="#9DC53C"/>
</g>
<defs>
<clipPath id="clip0_209_3">
<rect width="404" height="268" fill="white" transform="translate(-154)"/>
</clipPath>
<clipPath id="clip1_209_3">
<rect width="404" height="268" fill="white" transform="matrix(-1 0 0 1 1595 0)"/>
</clipPath>
</defs>
</svg>
